<svg width="72" height="54" viewBox="0 0 72 54" fill="none" xmlns="http://www.w3.org/2000/svg">
<path d="M44.245 40.8198C44.1904 40.9711 44.1262 41.1197 44.0826 41.2747L44.083 41.2743C43.9005 42.05 43.6374 42.8041 43.2972 43.5249C43.0864 44.0507 42.9302 44.5968 42.8306 45.1542L42.6918 45.571C42.6083 45.5431 42.5403 45.4829 42.5021 45.4046C42.4638 45.3256 42.4589 45.2347 42.488 45.1524C42.6235 44.3225 42.8116 43.5025 43.0528 42.6968C43.2965 42.0049 43.476 41.2917 43.5892 40.5662C43.6438 40.0184 43.7406 39.476 43.8791 38.9429C43.9722 38.6701 44.1122 38.415 44.2922 38.1898C44.4064 38.0261 44.5799 38.0339 44.7308 38.1768L45.1459 38.5719C45.2142 38.0842 45.6717 37.6848 45.1607 37.2409C44.785 37.2102 44.5498 37.4952 44.2647 37.6533C44.0544 37.7695 43.8888 37.9659 43.6881 38.1051C43.5984 38.1672 43.4497 38.2272 43.3679 38.1925C43.2919 38.1607 43.2499 38.0063 43.226 37.8984C43.0641 37.1618 43.6649 36.8538 44.0801 36.4703L44.0797 36.4699C44.4265 36.1949 44.7891 35.9402 45.1649 35.7071C45.3279 35.5652 45.5465 35.5057 45.7581 35.5454C45.9441 35.5485 46.1294 35.5236 46.3076 35.4712L46.5566 36.1698C46.2673 36.5457 45.6768 36.4483 45.4602 36.9409L45.9137 37.1376L46.3658 36.763C46.4573 36.6888 46.5141 36.6162 46.6719 36.7259C46.8318 36.8367 46.9532 36.6363 46.9029 36.3205L47.4949 36.2344L47.8056 36.5888C48.1161 36.6323 48.4292 36.6508 48.743 36.6441C49.2202 36.5914 49.6731 36.4093 50.0545 36.1176C50.4727 35.8111 50.8697 35.4742 51.2647 35.1378C51.3927 35.0289 51.5002 35.0078 51.6307 35.1059L51.6303 35.1063C51.684 35.1385 51.7217 35.1921 51.7334 35.2534C51.7456 35.3151 51.7302 35.3786 51.6926 35.4291L51.5441 35.6613C51.0533 36.3159 50.3702 36.8003 49.5899 37.0465C49.3229 37.0686 49.0778 37.2006 48.9118 37.4103C49.0259 37.4589 49.146 37.4907 49.2687 37.506C50.3126 37.5128 51.3056 37.0592 51.9835 36.2661C52.1084 36.1142 52.234 35.8956 52.4653 36.0477C52.6965 36.1998 52.5448 36.4003 52.4569 36.5769C52.1509 37.1918 51.5852 37.6375 50.9161 37.7909L49.7544 38.1183C49.9167 38.4344 50.2681 38.6055 50.6173 38.5374C51.6773 38.4198 52.6665 37.9484 53.4263 37.1993L53.6254 37.0086L53.7242 36.9813C53.8824 37.039 53.9072 37.1636 53.854 37.3099C53.764 37.6554 53.5559 37.9576 53.2658 38.1653C52.47 38.7836 51.4862 39.1097 50.479 39.0889L50.3542 39.2931C50.0925 39.743 50.1717 39.9725 50.6475 40.1809C50.7863 40.2417 50.9119 40.3324 51.0442 40.4063L51.4212 40.6064L51.7589 40.2612L51.7593 40.2607C52.5185 40.536 53.3544 40.5094 54.0942 40.1858C54.5578 40.0307 55.0124 39.8485 55.4556 39.6418C55.5816 39.585 55.7113 39.5376 55.8439 39.4996L56.0492 39.5404C56.0881 39.617 56.0906 39.7072 56.0561 39.7862C55.9746 39.9329 55.8611 40.0594 55.7241 40.1564C55.3589 40.3793 54.9762 40.5727 54.5796 40.7334C53.9549 40.9464 53.2978 41.0492 52.6381 41.0367C52.3798 41.0136 52.1242 40.9647 51.8759 40.8899L51.5693 40.837C51.5481 41.3509 51.6304 41.4536 52.0618 41.5888L52.0622 41.5892C52.5097 41.7039 52.9768 41.7165 53.4299 41.6264C54.3856 41.4949 55.3364 41.3249 56.2896 41.17L56.4684 41.1363L56.6898 41.253C56.7205 41.3481 56.7074 41.4523 56.6524 41.5364C56.563 41.6404 56.4443 41.7152 56.3116 41.7524C55.7376 41.8979 55.1558 42.0106 54.569 42.0893C53.8297 42.1654 53.0822 42.1645 52.3142 42.1975L52.4048 42.3417C52.9002 42.5881 53.4376 42.7388 53.9885 42.7864C54.5404 42.7992 55.0897 42.8612 55.6421 42.8768C55.962 42.8862 56.284 42.8467 56.6045 42.8309C56.7113 42.8259 56.8303 42.7946 56.9222 42.8308C57.0329 42.8679 57.1229 42.9502 57.1703 43.0571C57.1528 43.1696 57.0813 43.2662 56.9794 43.3165C56.4406 43.5012 55.8653 43.5501 55.304 43.4591L55.0811 43.4236L55.0803 43.4237C54.3914 43.4783 53.6985 43.3921 53.0446 43.1702L52.9174 43.1911L52.9166 43.1912C52.8812 43.4733 53.0701 43.7352 53.3496 43.7895C53.6564 43.8896 53.9702 43.9649 54.2895 44.0146C54.9584 44.0998 55.631 44.1504 56.3025 44.2166L57.0299 44.2966C57.027 44.5533 56.9498 44.6767 56.712 44.6908L56.7115 44.6904C55.9826 44.8024 55.2397 44.7744 54.522 44.6084C54.0954 44.4865 53.6621 44.3905 53.2242 44.32C53.0806 44.3102 52.9358 44.3161 52.7931 44.3374C52.864 44.5754 53.0407 44.7672 53.2722 44.8574C54.2834 45.3428 55.361 45.6755 56.4701 45.8438C56.7233 45.8768 56.9994 45.8766 57.1059 46.2329L57.1063 46.2325C57.0152 46.285 56.9152 46.3204 56.8119 46.3384C56.4005 46.372 55.9857 46.329 55.5896 46.2118C55.0979 46.0119 54.556 45.9398 54.0507 45.7687C53.6179 45.6215 53.2064 45.4125 52.785 45.2323L52.523 45.1474C52.5965 45.3309 52.6115 45.4816 52.6946 45.5554C53.1401 45.9496 53.5899 46.3417 54.065 46.6996L54.0642 46.6996C54.2953 46.8485 54.5444 46.9681 54.8053 47.055C55.0588 47.1587 55.1925 47.3105 55.1198 47.4803C55.0257 47.6977 54.8245 47.7014 54.6475 47.6367C54.3498 47.5274 54.0618 47.3904 53.7753 47.2517L53.7752 47.2509C53.1329 46.8309 52.6125 46.2489 52.2675 45.5635C52.1896 45.4246 52.1249 45.2787 52.0755 45.1275C51.8906 45.1367 51.731 45.2605 51.6763 45.4373C51.6061 45.661 51.5385 45.8877 51.6939 46.099C52.0375 46.5672 52.3727 47.043 52.7453 47.4871L52.745 47.4876C52.9156 47.6413 53.1057 47.7717 53.3104 47.8749C53.4215 47.926 53.5198 47.9998 53.6003 48.0917C53.6417 48.1994 53.6399 48.319 53.5965 48.4257L53.3615 48.478C52.1146 48.045 51.1811 46.9962 50.8952 45.7072L50.3595 45.6831L50.3599 45.6835C50.5513 46.3366 50.82 46.9643 51.1595 47.5545C51.3839 48.169 51.7114 48.7456 52.0101 49.3736L52.4567 49.2654L52.457 49.265C52.8876 49.1637 53.3095 49.028 53.7183 48.8587C54.3742 48.66 55.0034 48.382 55.5914 48.0307C55.7428 47.9253 55.9111 47.8458 56.0886 47.7958C56.3827 47.7123 56.6332 47.5192 56.7899 47.2565C56.9992 46.9954 57.2461 46.7657 57.5223 46.576C57.819 46.3357 58.1033 46.0796 58.3736 45.8096C58.6704 45.4837 58.9197 45.1144 59.1896 44.7636L59.19 44.7632C59.3075 44.5857 59.439 44.4171 59.5827 44.2602C60.2303 43.5636 60.7322 42.7445 61.0593 41.8515C61.2005 41.5369 61.3793 41.2394 61.5518 40.9126L62.0401 41.2111L62.1846 40.9646C62.1608 40.587 62.3019 40.2108 62.1624 39.8287C62.1098 39.6845 62.1781 39.5001 62.1672 39.3356L62.1676 39.336C62.1501 38.7866 62.1032 38.2388 62.0268 37.6942C61.9698 37.4035 62.0787 37.1054 62.3088 36.9191C62.501 36.7775 62.7626 36.7749 62.9568 36.9134L63.1668 37.0047L63.1672 37.0051C63.2417 37.0294 63.3242 37.011 63.3816 36.9571C63.4391 36.9032 63.4622 36.8224 63.4425 36.7463C63.3537 36.1716 63.251 35.5989 63.1611 35.0246C63.1258 34.8451 63.1095 34.6629 63.1123 34.4805C63.1364 34.026 63.2264 33.5707 63.2058 33.1193C63.1551 32.7752 63.0736 32.4367 62.9614 32.1071C62.8691 31.8363 62.8142 31.5543 62.7995 31.2681C62.837 30.7165 62.7395 30.1643 62.515 29.6597C62.3571 29.3134 62.1805 28.976 61.9865 28.6489C61.8024 28.3367 61.7038 28.0367 61.9688 27.7202C61.8937 27.6331 61.8141 27.5503 61.7295 27.4722C61.2336 27.0623 60.8059 26.5763 60.4621 26.0322C60.3435 25.894 60.2024 25.7758 60.0458 25.6824C59.8059 25.5187 59.5757 25.3418 59.3559 25.1523C58.7215 24.5309 58.1142 23.8809 57.4755 23.2633L57.4759 23.2637C57.2151 23.032 56.9292 22.8302 56.6243 22.6621C56.097 22.3006 55.5947 21.9047 55.1187 21.4778L54.7594 21.2047C54.5071 21.005 54.1675 20.9347 53.9831 20.6214C53.917 20.5099 53.6969 20.4891 53.5756 20.4045C53.3384 20.1964 53.114 19.9708 52.8616 19.7839C52.3503 19.37 51.8094 18.9933 51.244 18.6576C50.6723 18.3517 49.9962 18.2382 49.4331 17.9211C48.9272 17.6364 48.3082 17.6969 47.8521 17.29C47.7189 17.1706 47.4512 17.2095 47.2515 17.154C46.8993 17.0557 46.5483 16.9508 46.2032 16.8301C46.0346 16.7585 45.8699 16.6767 45.7111 16.5859L45.0513 16.264L44.8396 16.1788C44.1476 15.7272 43.3608 15.4423 42.5406 15.3457C42.0816 15.2547 41.6522 15.0235 41.1997 14.8898C40.5238 14.6552 39.8292 14.4779 39.1237 14.3592C38.4068 14.2659 37.7111 14.0543 37.0633 13.7334C36.4932 13.4738 35.9055 13.2559 35.3036 13.0808C34.7535 12.9021 34.1936 12.7554 33.6267 12.642C32.8196 12.4852 32.0069 12.3431 31.19 12.2608L31.1895 12.2605C30.5065 12.1945 29.8174 12.2299 29.1445 12.3656C28.958 12.4205 28.7569 12.3743 28.6135 12.2434C29.3502 12.0255 30.102 11.8635 30.8632 11.7578C31.1344 11.7403 31.3998 11.644 31.6706 11.6344C32.0663 11.6201 32.4648 11.6492 32.8623 11.66L32.8619 11.6596C33.275 11.6647 33.6836 11.7408 34.0704 11.8853C34.3761 11.9874 34.6983 12.0338 35.0203 12.0231C35.5875 12.0618 36.1455 12.1862 36.6758 12.3919C37.0283 12.5458 37.4263 12.5602 37.7891 12.4321C38.0152 12.3279 38.2748 12.3234 38.5042 12.4193C38.6197 12.4629 38.7437 12.4802 38.8663 12.4695C39.3218 12.4164 39.7836 12.4636 40.2191 12.6078L40.3091 12.6233C40.8087 12.4763 41.2708 12.6922 41.7478 12.7674L41.7473 12.767C41.8684 12.7884 41.9927 12.7876 42.1137 12.7643C42.5411 12.6935 42.9799 12.7731 43.3561 12.9893C43.6015 13.1131 43.8758 13.1681 44.1497 13.1476C44.422 13.1568 44.6915 13.2029 44.9505 13.2843C45.1504 13.3582 45.3598 13.4028 45.5723 13.4152C46.1393 13.4416 46.6942 13.5913 47.1972 13.8536C47.7862 14.0271 48.3587 14.2509 48.9083 14.524C49.5895 14.8347 50.2318 15.2243 50.8224 15.685C51.5027 16.2672 52.3287 16.6183 52.99 17.2099C53.1467 17.3505 53.285 17.5124 53.4342 17.6622C53.4923 17.7302 53.5595 17.7905 53.6341 17.84C54.0098 18.001 54.3381 18.2546 54.5891 18.5775L54.6915 18.667C55.1065 18.8755 55.4836 19.1523 55.8063 19.4865C56.0745 19.6838 56.3594 19.8589 56.6271 20.0566C56.7841 20.1724 56.9194 20.3165 57.0715 20.4385L57.3397 20.6002C57.406 20.6362 57.5024 20.6445 57.5432 20.6971C58.198 21.5452 59.1226 22.128 59.7795 22.9773L59.7798 22.9768C60.0317 23.2649 60.3007 23.5381 60.5845 23.7948C60.6954 23.9011 60.7975 24.0155 60.8904 24.1367C61.4782 24.8026 62.0289 25.4997 62.5403 26.2253C62.8029 26.5647 62.9653 26.9703 63.0088 27.3968C63.0198 27.4886 63.0506 27.5768 63.0992 27.6553C63.3539 28.1786 63.6292 28.6924 63.8613 29.2258L63.8617 29.2254C63.9353 29.456 63.9823 29.6945 64.0026 29.9356L64.1165 30.6049L64.1161 30.6053C64.2253 31.0338 64.2337 31.4818 64.1401 31.9141C64.115 32.0917 63.9547 32.2172 63.7766 32.1985C63.5568 31.8967 63.7777 31.4602 63.4393 31.1393C63.3231 31.4581 63.3318 31.8086 63.4635 32.1208C63.7775 32.6928 63.83 33.3722 63.6068 33.9855C63.5084 34.293 63.5003 34.6224 63.584 34.9348C63.7274 35.588 63.855 36.2446 64.0087 36.8949L64.0091 36.8945C64.0764 37.1178 64.0324 37.3604 63.8902 37.5452C63.7638 37.7207 63.7236 37.9439 63.7805 38.1527C63.8781 38.6322 63.933 39.1196 63.9455 39.6085C63.9201 40.1771 63.7821 40.7349 63.5391 41.2493C63.2894 41.8092 63.0553 42.3771 62.8182 42.9424L62.7755 43.1574C62.9412 43.6404 62.6051 43.9272 62.3388 44.2123L62.3384 44.2127C62.0986 44.4471 61.8336 44.6538 61.5482 44.83C61.4208 44.8892 61.2851 44.9298 61.1459 44.9505L60.9941 45.2382C60.6469 45.0792 60.8822 44.783 60.7913 44.5658L60.6941 44.6538C60.3664 45.0944 59.9897 45.4966 59.5719 45.8526C59.3985 46.0755 59.1845 46.2633 58.9413 46.4061L58.8074 46.5309C58.4359 47.0135 58.0841 47.5122 57.6876 47.973L57.6872 47.9734C57.5154 48.137 57.3104 48.2624 57.086 48.3402C56.4605 48.582 55.8589 48.8825 55.2894 49.2376C54.9849 49.414 54.6554 49.5438 54.3119 49.6217C53.2853 49.9269 52.252 50.2109 51.225 50.5141C51.0999 50.5512 51.0024 50.676 50.8778 50.7228C50.7599 50.7671 50.5826 50.8219 50.5029 50.7671C50.1808 50.5464 49.8544 50.6373 49.5268 50.6991C49.2811 50.7456 49.3295 50.7829 49.0547 50.616C49.0863 50.4109 49.2509 50.3356 49.4096 50.2406C49.5678 50.1453 49.7057 50.0279 49.8622 49.9135C49.7164 49.415 49.6063 48.919 49.4258 48.4508C49.165 47.7051 49.2037 46.8869 49.5344 46.1691C49.6471 45.9631 49.7875 45.7736 49.9518 45.6056C49.8257 45.3735 49.6993 45.1653 49.5966 44.9459C49.508 44.7556 49.3936 44.6879 49.1346 44.8211L48.8478 46.4866C48.8413 46.624 48.8083 46.7589 48.752 46.8843C48.5793 47.2374 48.4962 47.6284 48.5108 48.0213C48.4356 48.5346 48.3345 49.0428 48.2084 49.5461C48.1829 49.6658 48.101 49.785 48.112 49.8979C48.0674 50.5402 47.8916 51.1664 47.5945 51.7377C47.536 51.9264 47.4579 52.1081 47.3876 52.2929L47.3877 52.2937C47.3433 52.4404 47.2851 52.5831 47.2146 52.7192C46.6443 53.7718 46.2522 54.9114 46.0546 56.092C45.9106 56.7157 45.7032 57.3265 45.5854 57.9548C45.4487 58.6821 45.1245 59.3496 44.9661 60.0612C44.9485 60.5094 44.79 60.9405 44.5127 61.2937C44.4633 61.3412 44.479 61.4682 44.4831 61.5575C44.47 61.9871 44.3279 62.4025 44.0755 62.7507C43.8234 63.0986 43.4725 63.363 43.0684 63.5093C42.8813 63.5319 42.7195 63.6506 42.6421 63.8222C42.6079 63.8908 42.5517 63.9458 42.4823 63.9776C42.1749 64.1462 41.8519 64.2848 41.518 64.3917C40.9547 64.5294 40.3764 64.6096 39.8015 64.6952L39.8019 64.6948C39.2873 64.7731 38.7631 64.7533 38.2566 64.6349C37.9228 64.5955 37.5851 64.5959 37.2511 64.6368C37.1438 64.639 37.0303 64.6776 36.9307 64.6534L36.9303 64.6538C36.4039 64.5493 35.863 64.532 35.3308 64.6021L35.1125 64.4972C35.104 64.4077 35.1397 64.2631 35.2049 64.2268L35.2053 64.2272C35.5599 64.0153 35.9664 63.9052 36.3799 63.9091C36.809 63.9142 37.2368 63.9545 37.6601 64.0286C37.9252 64.0965 38.1737 64.2193 38.3884 64.3891C38.6119 64.5532 38.7825 64.5743 38.9959 64.3905C39.3446 64.1353 39.7562 63.9798 40.1866 63.9421C40.3679 63.9098 40.5467 63.8617 40.7297 63.8454C41.2803 63.7092 41.7831 63.4233 42.1816 63.0195C42.2925 62.9415 42.3804 62.8308 42.4918 62.754C42.8528 62.5434 43.1338 62.2191 43.291 61.8317C43.3309 61.75 43.3815 61.6733 43.44 61.6038C43.501 61.5349 43.5499 61.4567 43.5857 61.372C43.6635 61.0529 43.71 60.7254 43.7955 60.4078C43.8915 60.086 43.9239 59.7481 43.8909 59.413C43.8892 58.9407 43.58 58.5246 43.1281 58.3869L43.0134 58.2908C43.2817 57.6763 43.5551 57.0663 43.8134 56.4495C43.8835 56.2827 43.8955 56.0918 43.9565 55.9206C44.1205 55.4588 44.2946 55.0001 44.4683 54.5418L44.4684 54.5426C44.6098 54.1069 44.6858 53.6535 44.6942 53.1962C44.6952 53.0903 44.7087 52.9848 44.7342 52.8819C44.9599 52.1662 45.1669 51.4443 45.4297 50.7422L45.4301 50.7418C45.693 49.9913 45.9031 49.2237 46.0585 48.4435C46.3098 47.3079 46.5767 46.1751 46.7892 45.0321C46.9061 44.4038 46.9301 43.7574 46.9842 43.1182L46.8845 42.8954L46.6787 43.0361C46.626 43.2124 46.5858 43.3916 46.5573 43.5738C46.5403 43.6943 46.516 43.8135 46.4844 43.9315C46.2493 44.6281 46.0032 45.321 45.7696 46.0183C45.5417 46.6994 45.3246 47.3834 45.1023 48.0658L45.0388 48.2355L44.8249 48.3591C44.7415 48.3252 44.62 48.2071 44.6315 48.147C44.7071 47.7584 44.4597 47.3545 44.695 46.9772L44.7065 46.8419C44.6451 46.2493 44.692 45.6501 44.8438 45.0743C44.8908 44.5426 45.0067 44.0195 45.1885 43.5176C45.3846 43.0081 45.429 42.443 45.587 41.916L45.5875 41.9163C45.7647 41.2504 45.8469 40.5637 45.8318 39.8747C45.8206 39.7282 45.796 39.5833 45.7583 39.4419C45.1318 39.5698 45.1104 39.5666 45.0265 40.1183C44.9437 40.662 44.9222 41.2151 44.8508 41.7614C44.7911 42.2158 44.7103 42.6695 44.6172 43.1182C44.5558 43.4149 44.4588 43.7047 44.3747 43.9963C44.0139 45.2481 43.5968 46.4874 43.3064 47.7554C43.0433 48.9016 42.5113 49.9444 42.188 51.0623L42.1163 51.1785L42.0174 51.2255C41.8804 51.0958 41.9515 50.9405 41.9939 50.8079C42.2092 50.1375 42.4498 49.4754 42.6543 48.802C42.8712 48.0859 43.0592 47.3607 43.2529 46.6383C43.4676 45.8385 43.6872 45.0392 43.8825 44.2348C44.0089 43.7152 44.1049 43.1872 44.199 42.6605C44.2736 42.2391 44.3317 41.8151 44.3801 41.39L44.3797 41.3897C44.3896 41.2105 44.3878 41.0307 44.3745 40.852L44.245 40.8198ZM44.4126 58.5161L44.4131 58.5165C44.5817 58.3683 44.6809 58.1562 44.6866 57.9317C44.8015 57.2212 44.9829 56.5227 45.2279 55.8455C45.383 55.3819 45.4672 54.8949 45.5852 54.4192C45.6212 54.2566 45.666 54.0967 45.7199 53.9395C46.0284 53.1078 46.3323 52.2735 46.6592 51.4484L46.6589 51.4488C46.7912 50.9276 47.0072 50.4315 47.2988 49.9796C47.3509 49.8876 47.3764 49.7831 47.3715 49.6779C47.3328 49.1572 47.4268 48.6357 47.6436 48.1607C47.6733 48.0904 47.6892 48.0152 47.6911 47.9387C47.7711 47.4252 47.8101 46.9007 47.9404 46.4004L47.9408 46.4C48.0631 45.9297 48.0957 45.4403 48.0367 44.9583C48.0235 44.8547 48.053 44.7508 48.1181 44.6689C48.3997 44.4022 48.3436 44.0979 48.2791 43.7701C48.1876 43.3082 48.1119 42.8415 48.0605 42.3731L48.0597 42.3731C48.0244 42.2096 48.0823 42.0402 48.2108 41.9333C48.3392 41.8256 48.516 41.7984 48.6706 41.8619C49.2142 42.1129 49.4809 42.7335 49.2899 43.3007C49.1582 43.598 49.1687 43.9388 49.3179 44.2272C49.4679 44.5156 49.7404 44.7206 50.0588 44.7849C50.4591 44.9286 50.7349 44.7082 51.0515 44.5774C51.2873 44.4803 51.4237 44.329 51.3196 44.1044C51.499 44.0811 51.7338 44.1151 51.7915 44.0296L51.7911 44.0292C51.9777 43.7933 52.0699 43.4961 52.0492 43.1955C51.577 43.0972 51.577 43.0972 51.3227 43.4628C51.1126 42.9134 51.1165 42.9048 50.4866 42.6325L50.4862 42.6329C50.2777 42.5316 50.1176 42.3508 50.0421 42.1315C50.0192 42.0184 50.0528 41.9023 50.1318 41.8185C50.3169 41.6713 50.5118 41.5376 50.716 41.4182C50.5662 41.3392 50.4571 41.2293 50.3725 41.2458C50.033 41.2719 49.6945 41.1852 49.4094 40.9992C49.0266 40.831 48.7333 40.5088 48.6014 40.1123C48.826 40.0605 48.9993 40.0059 49.1764 39.9843C49.3424 39.9641 49.5146 39.9927 49.6815 39.9749L49.6814 39.9741C49.7686 39.9817 49.8534 39.9471 49.9106 39.8809C49.9677 39.8146 49.9897 39.7251 49.9695 39.6403C49.9684 39.562 49.9344 39.4875 49.8756 39.4355C49.8176 39.3835 49.7395 39.3582 49.662 39.366L49.5255 39.3838C48.9844 39.4232 48.444 39.4654 47.9033 39.496L47.6482 39.4127L47.6474 39.4127C47.6959 39.1008 47.8494 38.8138 48.0832 38.6005C47.6954 38.7151 47.3859 38.7939 47.0858 38.8985C46.7689 39.0093 46.7528 39.0593 46.8084 39.3616C46.9749 39.8953 47.0429 40.4552 47.009 41.0138L47.0613 41.1752C47.6272 41.3135 47.7034 41.3993 47.704 41.9556L47.7036 41.9553C47.7292 42.3671 47.7153 42.78 47.6623 43.1889C47.5705 44.0588 47.4047 44.9191 47.1658 45.7603L47.1377 45.9412C47.0384 46.4678 46.952 46.9969 46.8342 47.5197C46.7055 48.0866 46.5465 48.6468 46.4021 49.2102C46.3075 49.5803 46.2283 49.9543 46.119 50.3195C45.9745 50.801 45.8236 51.282 45.6457 51.7517C45.3527 52.5239 45.247 53.3442 45 54.1301C44.6449 55.2581 44.2919 56.3837 43.83 57.4735L43.8292 57.4736C43.7606 57.6607 43.7031 57.8525 43.6569 58.0469L44.4126 58.5161ZM51.6355 49.6592L51.636 49.6595C51.1833 49.3172 50.8634 48.8286 50.731 48.2762C50.3978 47.6756 50.1841 47.0162 50.1011 46.3344L50.0146 46.2872L50.0142 46.2868C49.8542 46.5497 49.803 46.8654 49.8728 47.1654C50.0431 47.8639 50.1922 48.5693 50.4026 49.2561C50.6126 49.9425 50.6405 49.9342 51.3494 49.733L51.6355 49.6592ZM47.6989 36.9335C47.1926 37.1404 47.0699 37.6407 46.6481 37.9538C47.0328 38.0532 47.2242 37.8329 47.4543 37.7421L48.1706 37.449L47.6989 36.9335ZM51.7787 42.5403C51.7662 42.3031 51.7597 42.1396 51.5815 42.0086C51.3809 42.2813 51.5409 42.3869 51.7782 42.5399L51.7787 42.5403ZM46.8052 42.6036C47.0432 42.2909 47.0432 42.2909 46.8626 41.9894L46.8052 42.6036Z" fill="black"/>
<path d="M30.356 35.2893C30.968 35.5199 31.0228 35.6971 30.5759 36.1439C29.9673 36.7709 29.4599 37.4887 29.0708 38.2708C28.5968 39.249 28.176 40.2523 27.8097 41.2762C27.6912 41.6407 27.5939 42.0121 27.5184 42.3887L27.4214 42.6542L27.1073 42.6553L27.0423 42.7327C26.9083 43.1341 26.7531 43.5302 26.6511 43.9398C26.4956 44.5638 26.3611 45.193 26.2477 45.8275C26.146 46.3973 26.1129 46.9803 26.0006 47.5475C25.8754 48.1782 25.686 48.7953 25.5406 49.4223C25.4186 49.817 25.3448 50.2247 25.3212 50.6364C25.2737 51.2625 25.19 51.885 25.0696 52.501C25.0208 52.8015 24.9913 53.1048 24.9819 53.4095C25.0055 54.0349 25.069 54.659 25.1236 55.2827C25.1478 55.4324 25.1822 55.5808 25.2249 55.7268C25.6586 55.3455 26.0665 55.0252 26.429 54.659C26.8968 54.1688 27.5088 53.8405 28.1758 53.7224L28.3535 53.6816C28.8835 53.2495 29.5432 53.3491 30.1506 53.2357C30.5554 53.1606 30.9602 53.0846 31.3602 52.9877C31.6327 52.9214 31.7834 52.9655 31.8329 53.1783L31.8326 53.1787C31.8791 53.41 31.7473 53.6398 31.5245 53.7166C31.4061 53.7522 31.283 53.7661 31.1599 53.7596C30.4696 53.744 29.7824 53.8585 29.1347 54.0971C28.7801 54.156 28.4307 54.2413 28.0885 54.3514C27.3928 54.5955 26.7833 55.0375 26.3355 55.6229C26.0896 55.9149 25.8265 56.1913 25.5481 56.4527C25.235 56.6851 25.1526 57.1185 25.3581 57.4498C25.6678 58.0369 25.7625 58.714 25.6256 59.3638C25.5424 59.8995 25.8295 60.4246 26.3254 60.6435C26.6765 60.8302 27.0255 61.0227 27.3697 61.2222C27.4742 61.2849 27.5681 61.3645 27.6474 61.4569C27.878 61.7214 28.1041 61.9901 28.3194 62.2681L28.3194 62.2673C28.3703 62.3585 28.408 62.4559 28.431 62.557C28.3704 62.633 28.2786 62.678 28.1811 62.6793C28.0836 62.6806 27.9906 62.6389 27.9274 62.564C27.3053 62.0674 26.5895 61.6998 25.8239 61.4825C25.5226 61.3374 25.2611 61.1218 25.0611 60.8545C24.7099 60.4523 24.3909 60.0236 24.1058 59.573C23.984 59.2963 23.8842 59.0111 23.8064 58.7192C23.7047 58.4741 23.7407 58.194 23.8994 57.9815C23.9458 57.9087 24.0109 57.8496 24.0883 57.8106C24.3048 57.7417 24.4275 57.5136 24.366 57.2947C24.2704 56.6017 24.1811 55.9075 24.1082 55.212C24.0586 54.7407 24.0248 54.2661 24.0143 53.7927C24.0019 53.2266 24.0195 52.6601 24.033 52.0938C24.0493 51.9878 24.0744 51.8837 24.1076 51.7816C24.1924 51.474 24.248 51.1593 24.2739 50.8413C24.273 49.9852 24.4255 49.1364 24.724 48.3344C24.8867 47.9163 24.9786 47.4741 24.9954 47.0259C25.0291 46.6824 25.0845 46.3408 25.1613 46.0041L24.844 46.1517L24.6384 46.1704L24.6383 46.1696C24.5778 46.107 24.5487 46.0202 24.558 45.9338C24.6109 45.791 24.6811 45.6553 24.7682 45.5303C24.949 45.2459 25.1443 44.9699 25.3205 44.6821L25.32 44.6818C25.3632 44.5719 25.3918 44.4572 25.405 44.3394L25.143 44.4328C24.8448 44.7172 24.5515 45.0069 24.263 45.3024C24.1586 45.4096 24.0585 45.5033 23.9087 45.4084C23.7253 45.2916 23.7952 45.1216 23.8865 45.0071C24.096 44.7447 24.3369 44.5074 24.5603 44.2558C24.8349 43.9471 25.112 43.6407 25.374 43.3215L25.3744 43.3211C25.4627 43.1888 25.5386 43.0484 25.601 42.9019C25.3412 42.8205 25.0586 42.9166 24.9021 43.1393C24.3222 43.8315 23.6532 44.443 22.9114 44.9581L22.8217 44.9694C22.6385 44.6648 22.6402 44.6088 22.8802 44.3987C23.2374 44.0867 23.6005 43.7824 23.959 43.4723L23.9594 43.4727C24.034 43.4191 24.0988 43.3528 24.1514 43.2772C24.3166 42.9849 24.4685 42.6853 24.6672 42.31L24.6676 42.3103C24.5732 42.3538 24.4838 42.4071 24.4012 42.4687C24.1411 42.7274 23.9074 43.0167 23.6271 43.2498C23.4146 43.3988 23.1864 43.5239 22.9467 43.6221C22.7372 43.745 22.5165 43.8465 22.2865 43.9253C21.8595 44.0397 21.4255 44.1288 20.9881 44.1922C20.7609 44.2249 20.7083 44.1254 20.7026 43.7996L22.0774 43.4679L22.0774 43.4671C22.5532 43.3381 22.9978 43.1137 23.384 42.8074C23.6851 42.5808 23.6773 42.4077 23.3707 42.2161C23.0641 42.0246 23.0672 41.8605 23.3687 41.6495C23.6313 41.4658 23.8856 41.2701 24.1383 41.0729L24.1391 41.0729C24.2023 41.0303 24.2497 40.9681 24.273 40.8957C24.3125 40.6302 24.3319 40.3618 24.3665 40.0137L23.6112 40.2802C23.5349 40.3027 23.474 40.3596 23.4469 40.4338C23.4189 40.5081 23.4279 40.5911 23.4706 40.6576L23.66 41.023C23.4487 41.0328 23.2518 41.1323 23.1189 41.2966C22.4743 42.0187 21.6477 42.5548 20.726 42.8495C20.1661 43.041 19.5736 43.1184 18.9834 43.0765C18.848 43.0567 18.7213 42.9985 18.6185 42.9085C18.5556 42.8544 18.5578 42.7252 18.5306 42.6295C18.6133 42.6075 18.7046 42.5505 18.7767 42.569C19.4105 42.7076 20.0718 42.6381 20.6632 42.371C21.1781 42.1367 21.6761 41.8655 22.1518 41.5591C22.2829 41.4552 22.4028 41.3376 22.5093 41.2087C22.2742 41.142 22.1176 41.047 21.9789 41.0681L21.9797 41.0681C21.6428 41.0912 21.3129 41.1766 21.0078 41.3207C20.6186 41.5365 20.1958 41.685 19.7572 41.7616C19.1437 41.9096 18.5071 41.9339 17.8841 41.8322C17.6802 41.8229 17.4966 41.703 17.4063 41.5197C17.3779 41.4381 17.3822 41.3487 17.4191 41.2704L17.6249 41.2328C17.8517 41.2648 18.0751 41.3167 18.3008 41.3515L18.3012 41.3511C19.1584 41.4156 20.0179 41.257 20.7949 40.8903L20.782 40.2919C20.4088 40.353 20.0412 40.4205 19.6711 40.473L19.6715 40.4726C18.7569 40.5658 17.8334 40.4941 16.9442 40.2607C16.7696 40.2035 16.6073 40.1148 16.4651 39.9986C16.3306 39.906 16.3116 39.7783 16.4202 39.6657C16.9322 39.761 17.4222 39.8791 17.9195 39.9392L17.9191 39.9396C18.7375 40.0906 19.5796 40.0604 20.3851 39.8504L20.6919 39.7534C20.979 39.631 20.9903 39.5949 20.8955 39.2339C20.2893 39.2868 19.6804 39.3063 19.0721 39.2922C18.3722 39.224 17.6765 39.1171 16.9883 38.9714C16.8107 38.9235 16.6442 38.8394 16.4994 38.7254C16.4222 38.6888 16.3645 38.6196 16.3424 38.5369C16.3207 38.4537 16.3363 38.3654 16.3856 38.2951L16.7122 38.3689C17.5695 38.664 18.4687 38.817 19.3751 38.8225C19.7123 38.8125 20.048 38.7839 20.382 38.737C20.9003 38.6393 21.3493 38.3187 21.6101 37.8605C21.9478 37.4113 22.2658 36.9444 22.6311 36.5184C22.9355 36.1765 23.2659 35.8588 23.6199 35.5682C23.6955 35.5041 23.8779 35.5654 24.0832 35.5706L24.0828 35.5702C24.5857 35.138 25.2099 34.8715 25.8703 34.808C26.184 34.7405 26.4822 34.616 26.7505 34.4412C27.1293 34.2343 27.5268 34.333 27.9243 34.2795L28.1289 34.7783C28.5389 34.8056 28.7191 34.5033 28.918 34.2435C28.9997 34.1371 29.0357 33.9973 29.1116 33.8856C29.553 33.2353 30.1106 33.1902 30.6748 33.7759C30.9137 33.621 31.2913 33.758 31.4829 33.3703L31.1481 32.8365L31.2597 32.7289C31.9915 32.6907 32.7235 32.6581 33.4558 32.6311L33.4561 32.6299C33.6612 32.6084 33.8575 32.7192 33.9444 32.9064C34.0766 33.163 34.3751 33.2858 34.6495 33.1954C34.9302 33.1378 35.2162 33.1062 35.5026 33.1023C35.6866 33.1338 35.8648 33.1921 36.0316 33.2757L36.0646 34.0149C36.4227 34.045 36.7408 34.0953 37.0579 34.0909C37.2756 34.0882 37.4706 34.1016 37.5716 34.3051L37.5711 34.3048C37.6473 34.4921 37.5974 34.7066 37.4469 34.8423L35.9534 34.6689L35.8658 34.2036L35.5726 34.2279L35.5725 34.2271C35.175 34.3483 34.7512 34.3517 34.3517 34.2383L34.1706 34.2442L34.1702 34.2446C33.5447 34.4069 32.8908 34.4284 32.2555 34.3075C31.7136 34.2346 31.1707 34.4376 30.8097 34.8485L30.355 35.3057C29.8107 35.5507 29.2588 35.7789 28.7227 36.0419L28.7227 36.0411C28.193 36.2014 27.7439 36.5575 27.4666 37.0366C27.2196 37.6984 26.8227 38.2939 26.3061 38.7759C26.2515 38.8301 26.2066 38.8929 26.1728 38.9618C25.8944 39.437 25.6218 39.915 25.3398 40.3884L25.3394 40.388C25.2409 40.546 25.2499 40.7482 25.3615 40.8968C25.521 41.1179 25.7628 41.2659 26.0329 41.3072L25.7979 42.5218C26.0768 42.571 26.1476 42.4108 26.2315 42.2632L26.2311 42.2636C26.3052 42.1125 26.3941 41.9686 26.496 41.8347C26.6388 41.6687 26.8111 41.5283 26.9935 41.3553L27.2386 41.5182L27.3956 41.12C27.6132 40.4691 27.8405 39.82 28.0399 39.1633L28.0402 39.1629C28.4272 38.1127 28.9654 37.1246 29.6374 36.23C29.8538 35.9024 30.1149 35.6029 30.3557 35.2896L30.356 35.2893ZM24.6377 39.288L25.1455 38.2112L25.146 38.2116C25.3391 37.7426 25.6489 37.3313 26.0458 37.0156C26.1467 36.9454 26.2326 36.8564 26.3001 36.754C26.593 36.2525 26.9646 35.8018 27.4011 35.4192C27.4717 35.3294 27.527 35.2289 27.5643 35.1213C27.1926 35.0996 26.8275 35.2277 26.5509 35.4778C26.0659 35.8706 25.6117 36.301 25.1459 36.7172L25.0292 36.8582L25.0288 36.8579C24.7453 37.3845 24.3647 37.8528 23.9072 38.2386C23.5685 38.6187 23.3616 39.0988 23.3181 39.6063C23.2985 39.7237 23.3704 39.8565 23.3963 39.9654C24.0492 40.043 24.2462 39.4084 24.6377 39.288ZM25.2392 41.8244L24.9425 42.0579C25.2372 42.1782 25.2543 42.0222 25.2395 41.824L25.2392 41.8244Z" fill="black"/>
<path d="M14.1733 26.2718C14.2804 26.69 14.2683 27.1295 14.1388 27.5411C14.0988 27.7183 14.0852 27.9009 14.0533 28.0801C13.9867 28.4562 13.9265 28.8344 13.8432 29.207C13.7063 29.8203 13.5515 30.4291 13.4073 31.0404C13.3785 31.1283 13.3667 31.2209 13.3722 31.3137C13.4019 32.0152 13.3105 32.7164 13.1019 33.3868C12.9098 34.1031 12.9796 34.8647 13.2978 35.5344C13.405 35.77 13.4898 36.0152 13.5526 36.2664C13.6586 36.5844 13.7682 36.9018 13.8668 37.2222L13.8671 37.2217C13.9758 37.5232 14.0606 37.8327 14.1208 38.1468C14.1841 38.4939 14.3341 38.8195 14.5579 39.0923C14.7137 39.2593 14.8534 39.4399 14.9769 39.6319C15.2603 40.0877 15.6311 40.4832 16.0678 40.796C16.2704 40.98 16.4489 41.1901 16.6436 41.3822C16.9234 41.7279 17.255 42.0284 17.6265 42.2736C17.7702 42.3298 17.8917 42.4319 17.9716 42.5634C18.2265 43.0552 18.6306 43.4533 19.1257 43.7009C19.6043 44.0574 20.0863 44.4101 20.5616 44.7712L20.5612 44.7708C20.6555 44.8592 20.7419 44.9564 20.8187 45.0602C20.6549 45.1498 20.4543 45.1351 20.3051 45.0225C19.7263 44.596 19.1424 44.1769 18.5596 43.7565L18.4403 43.6874L16.4938 41.8832C16.343 41.4257 15.8931 41.3095 15.5651 41.0479C15.2434 40.7921 14.953 40.4997 14.6999 40.1757C14.392 39.76 14.1071 39.3278 13.8462 38.8808C13.7399 38.7119 13.6661 38.5244 13.6287 38.3286C13.5743 37.8136 13.4161 37.3146 13.1641 36.8619C13.1044 36.7712 13.0692 36.6668 13.0609 36.5593C13.0294 36.2285 12.9095 35.9125 12.7139 35.6445C12.5192 35.2622 12.3968 34.8476 12.3524 34.4204C12.265 33.9243 12.2201 33.4216 12.2171 32.9177C12.2285 32.627 12.3006 32.3421 12.4278 32.0801C12.5701 31.6983 12.6473 31.2952 12.658 30.8878C12.6597 30.0887 12.8322 29.2988 13.1636 28.5717C13.2271 28.4663 13.274 28.3523 13.3023 28.2328C13.51 27.5457 13.8022 26.8867 14.1733 26.2718Z" fill="black"/>
<path d="M27.2044 49.6169L27.1007 49.517C27.0277 49.1149 26.9951 48.7066 27.0029 48.2989C27.0245 47.5495 27.1243 46.8043 27.3005 46.0761C27.397 45.6448 27.4688 45.2081 27.5157 44.7687C27.7517 43.1615 28.1859 41.5895 28.8077 40.0889C29.067 39.5369 29.397 39.0185 29.6944 38.484C29.9253 38.0702 30.171 37.6627 30.3813 37.2388L30.3817 37.2384C30.4791 37.0157 30.5516 36.7827 30.5982 36.544C30.6254 36.2939 30.7908 36.0807 31.0258 35.9928C31.1932 35.9397 31.374 35.8312 31.5401 36.0052C31.728 36.1896 31.7719 36.4762 31.6483 36.7087L31.356 37.1767C30.8869 37.9667 30.509 38.8074 30.228 39.682C30.0531 40.2379 29.8294 40.7772 29.5601 41.2939C29.3857 41.6667 29.2453 42.054 29.1398 42.4514C29.1006 42.5982 29.0489 42.7413 28.984 42.8779C28.6571 43.5188 28.4056 44.1947 28.2341 44.8931C28.0243 45.5776 27.8455 46.274 27.7009 46.9745C27.5436 47.7349 27.4441 48.5069 27.3134 49.273C27.2846 49.3897 27.2481 49.5048 27.2042 49.617L27.2044 49.6169ZM28.2336 43.5345C28.8097 42.4273 29.2122 41.238 29.4276 40.0087C28.8634 41.1213 28.4615 42.3082 28.2336 43.5345Z" fill="black"/>
<path d="M24.9301 13.9842C24.9146 14.1393 24.9464 14.3118 24.8848 14.3568C24.5904 14.5726 24.4387 14.9581 24.0496 15.0572L23.8799 15.1256C23.402 15.606 22.7355 15.8081 22.2292 16.2449C22.0181 16.5234 21.7698 16.7707 21.4906 16.9805C21.2364 17.105 21.0352 17.337 20.7811 17.4639C20.4132 17.6366 20.0686 17.8568 19.7575 18.1191C19.2426 18.5723 18.6851 18.9775 18.1493 19.4075L18.149 19.4079C18.0463 19.475 17.9613 19.5656 17.9007 19.672C17.6304 20.1847 17.2681 20.6428 16.8311 21.0235C16.6034 21.2892 16.407 21.5809 16.2473 21.8925C16.1406 22.1062 15.9611 22.275 15.7411 22.3681C15.5439 21.7537 15.6895 21.0799 16.1227 20.6012C16.4785 20.1613 16.8091 19.6997 17.1818 19.275C17.3866 19.094 17.6102 18.9359 17.8488 18.8035C18.1485 18.1557 18.6449 17.6183 19.267 17.2687C19.6517 16.9936 20.007 16.677 20.3727 16.3749C20.6222 16.128 20.9161 15.9305 21.2391 15.7927C21.4804 15.6944 21.7017 15.5525 21.8906 15.3732C22.1191 15.1505 22.385 14.969 22.6756 14.8369C22.8444 14.7374 23.0393 14.6908 23.2354 14.703C23.4352 14.7313 23.6368 14.6604 23.7746 14.5126C24.1049 14.2356 24.5046 14.0529 24.9301 13.9842Z" fill="black"/>
<path d="M54.0235 29.9313C54.3864 30.0871 54.6311 30.4339 54.6562 30.8286C54.7048 31.6789 54.7304 32.5328 54.7054 33.3839L54.705 33.3835C54.6587 33.7158 54.5628 34.0399 54.4206 34.3438C54.3103 34.5564 54.227 34.782 54.1721 35.0148C54.1528 35.1817 53.8941 35.3636 53.703 35.4567C53.5083 35.5513 53.3339 35.4169 53.206 35.2331C53.0585 35.0205 52.8864 34.8245 52.7213 34.6248L52.7217 34.6244C52.5487 34.4723 52.4965 34.2253 52.5931 34.0163C52.7006 33.7366 52.7074 33.4281 52.6124 33.1443C52.5133 32.8711 52.5146 32.5713 52.6157 32.2988C52.712 31.9455 52.7197 31.5733 52.6391 31.216C52.5706 30.874 52.6648 30.5196 52.8944 30.2569C53.1239 29.9942 53.4624 29.8535 53.8109 29.8757L54.0235 29.9313Z" fill="black"/>
<path d="M22.54 33.5045C22.3253 33.6796 22.153 33.5902 21.9876 33.5117C21.2397 33.1639 20.5203 32.7589 19.835 32.3005C19.709 32.217 19.5601 32.1767 19.4096 32.1865C19.115 32.2309 18.8229 32.2911 18.5348 32.3664C18.6441 32.6342 18.8351 32.8608 19.0804 33.0142C19.5903 33.3577 20.1588 33.6038 20.7586 33.7399C20.9664 33.7922 21.1825 33.8176 21.3855 33.8837C21.4717 33.9118 21.6046 34.0317 21.593 34.0759L21.5925 34.0755C21.5606 34.1855 21.4852 34.2772 21.3842 34.3306C21.0554 34.414 20.7083 34.3893 20.394 34.2605C19.9873 34.1687 19.609 33.981 19.2895 33.7134C18.9685 33.5362 18.6869 33.2957 18.4617 33.0066C18.4118 32.9118 18.3093 32.8274 18.3005 32.7316C18.2525 32.217 17.8023 32.1112 17.4667 31.8988C17.2785 31.7967 17.0798 31.7156 16.8743 31.6564C16.3684 31.3998 16.0777 30.8532 16.1471 30.2899C16.2597 29.9936 16.5352 29.7912 16.8511 29.7713C17.0187 29.7813 17.1866 29.7818 17.3543 29.7723C17.7915 29.7186 18.2109 29.9643 18.3777 30.3718C18.5269 30.7338 18.6847 31.0921 18.8088 31.3823C19.0996 31.4604 19.3847 31.5592 19.6614 31.6785C20.4612 32.0986 21.2522 32.5344 22.0342 32.9871L22.0346 32.9875C22.2768 33.0675 22.4652 33.2599 22.54 33.5045Z" fill="black"/>
<path d="M39.9222 55.3345C39.7252 54.7257 40.0104 54.2954 40.1703 53.8398C40.2813 53.5224 40.4257 53.216 40.519 52.894L40.5182 52.8941C40.5672 52.6484 40.5976 52.3997 40.6092 52.1493L41.094 52.039C40.943 53.2327 40.6061 54.3953 40.095 55.4841C40.3148 55.8375 40.6063 56.1406 40.951 56.3733C41.2395 56.5774 41.3968 56.9202 41.3624 57.2722L41.1753 57.2196L41.1756 57.2192C40.6216 56.5994 39.8815 56.1752 39.0665 56.0113C38.4748 55.824 37.8743 55.6676 37.2672 55.5423C36.7645 55.4129 36.2451 55.364 35.7269 55.3966C35.3355 55.4254 34.961 55.2327 34.7565 54.8977C34.5768 54.6797 34.8796 54.2947 35.2215 54.3117C35.758 54.2925 36.295 54.3549 36.8126 54.4962C37.42 54.6998 38.0474 54.8372 38.6838 54.9061C38.9796 54.9728 39.2677 55.0682 39.5443 55.1919L39.9222 55.3345Z" fill="black"/>
<path d="M38.2233 33.6193C37.5772 33.3726 37.046 33.1381 36.4958 32.9721C36.1572 32.8822 35.8075 32.8393 35.4573 32.8451C35.0384 32.8962 34.6346 32.672 34.4555 32.29L34.3573 32.1958L34.3366 32.1022C34.496 31.8881 34.7498 31.9247 34.9646 31.9126C35.4168 31.8869 35.8718 31.8969 36.3256 31.9074L36.326 31.907C36.8802 31.9264 37.4007 32.1787 37.7598 32.6009C37.8163 32.6614 37.9358 32.742 37.9825 32.7203C38.3349 32.5548 38.5879 32.8424 38.8816 32.914L38.8811 32.9136C39.2145 33.0246 39.5378 33.1637 39.8478 33.3295C39.9006 33.6772 39.9852 34.1078 40.0212 34.5419C40.033 34.686 39.9191 34.84 39.8624 34.9894L39.7598 34.999L39.3309 34.0411L39.3305 34.0415C39.2723 34.1622 39.2219 34.2868 39.1793 34.4146C39.0933 34.7886 39.0025 35.162 38.94 35.5403L38.9395 35.54C38.9373 35.6676 38.8819 35.7877 38.7874 35.8728C38.6924 35.9575 38.5664 35.9991 38.4395 35.9876C38.2256 35.6699 38.1328 35.2857 38.178 34.9055C38.2089 34.4662 38.2102 34.0253 38.2233 33.6193Z" fill="black"/>
<path d="M57.9803 40.4438L58.0442 40.1122C58.328 39.1643 58.6021 38.213 58.9062 37.2712L58.9062 37.272C59.1372 36.4025 59.315 35.5204 59.4381 34.63C59.5556 33.5489 59.5491 32.4581 59.4193 31.3789C59.3848 30.3835 59.3506 29.3878 59.3413 28.3923L59.3416 28.3919C59.389 27.7339 59.2999 27.0725 59.0791 26.4506C59.0171 26.3101 58.9117 26.1208 59.1322 26.0077L59.1326 26.008C59.3477 25.9584 59.5667 26.076 59.6443 26.2828C59.7567 26.6807 59.83 27.0892 59.8632 27.5011C59.895 28.3575 59.8549 29.217 59.8724 30.0742C59.8898 30.9314 59.9472 31.7896 59.9755 32.6481L59.9752 32.6486C60.0283 33.6273 59.969 34.6089 59.7984 35.5742C59.5809 36.6544 59.2829 37.717 58.9068 38.7526C58.7269 39.2532 58.4889 39.7333 58.2666 40.2179L58.2662 40.2183C58.2078 40.3138 58.1371 40.402 58.0566 40.4807L57.9803 40.4438Z" fill="black"/>
<path d="M60.2253 29.1313C60.4991 29.0509 60.6214 29.1546 60.6506 29.3764C60.7437 30.0883 60.8527 30.7995 60.9134 31.5135C60.9774 32.2579 61.0093 33.0059 61.0259 33.7533C61.0396 34.3797 60.9858 35.0077 61.007 35.6332L61.0066 35.6328C60.999 36.5677 60.8837 37.4985 60.6625 38.4061C60.5204 39.2332 60.2306 40.028 59.8064 40.7528L58.5827 42.7486L58.4639 42.8422C58.3101 42.7263 58.2724 42.5105 58.3775 42.3485C58.7136 41.7311 59.0741 41.1272 59.4005 40.5055C59.6323 40.0932 59.8274 39.661 59.9838 39.2144C60.166 38.6334 60.3065 38.0406 60.4041 37.4398C60.5486 36.6573 60.644 35.8672 60.6896 35.0725C60.6795 34.4016 60.6331 33.7315 60.5517 33.0656C60.5336 32.806 60.543 32.5453 60.5249 32.2857C60.502 31.952 60.4651 31.6195 60.4342 31.2862L60.4163 31.1034C60.4136 30.7674 60.4352 30.4281 60.4042 30.094C60.3748 29.7803 60.2909 29.4707 60.2253 29.1313Z" fill="black"/>
<path d="M29.6231 17.6869C28.98 17.9069 28.3263 18.0939 27.6643 18.2471C27.1346 18.3118 26.6009 18.3304 26.0681 18.3022C25.8484 18.303 25.8147 18.1106 25.7809 17.9437C25.7486 17.7828 25.8181 17.7019 25.9786 17.6404L25.9782 17.6408C26.1601 17.575 26.3273 17.4732 26.4692 17.342C26.9999 16.9354 27.6077 16.6406 28.2554 16.4747C28.7842 16.2765 29.3737 16.5406 29.5778 17.0671C29.6188 17.2707 29.6342 17.4793 29.6231 17.6869Z" fill="black"/>
<path d="M41.7946 36.8115L42.7447 35.4437L42.853 35.2959C42.9769 34.8839 43.3799 34.6206 43.8076 34.6737L44.0542 34.5712L44.0538 34.5708C44.2107 34.5159 44.373 34.4795 44.5384 34.4633C44.7303 34.4573 44.8089 34.6173 44.7088 34.7814C44.6279 34.9113 44.5371 35.0345 44.4362 35.1495C43.9691 35.6889 43.4966 36.2234 43.0291 36.7623L42.7206 37.1596L42.721 37.16C42.6162 37.3131 42.4386 37.3995 42.2538 37.3884C42.0689 37.3772 41.9032 37.2695 41.8179 37.1051C41.7915 37.0094 41.7837 36.9099 41.7947 36.8114L41.7946 36.8115Z" fill="black"/>
<path d="M34.4257 56.2804C34.3068 56.3716 34.1762 56.447 34.0382 56.5045C33.536 56.6333 33.0301 56.7527 32.5218 56.8487C32.0902 56.9309 31.6441 56.9455 31.2184 57.0482L31.2181 57.0486C30.8671 57.1508 30.524 57.2806 30.1932 57.4373C29.7848 57.6077 29.376 57.777 28.9789 57.9729C28.6084 58.0969 28.3259 58.3993 28.2273 58.7771L29.095 59.3219L28.7862 59.4634C28.4622 59.4594 28.1533 59.3271 27.9261 59.096C27.8291 58.9818 27.7947 58.8266 27.8344 58.6818C27.9438 58.4152 28.1029 58.172 28.3035 57.9652C28.6939 57.6195 29.1496 57.3549 29.644 57.1865C30.5753 56.8346 31.5439 56.5873 32.5301 56.4498C32.9676 56.3744 33.4004 56.2765 33.8275 56.1562C34.0328 56.0651 34.2732 56.1148 34.4257 56.2804Z" fill="black"/>
<path d="M41.7631 43.9505C41.654 43.8997 41.571 43.8063 41.5344 43.6916C41.4974 43.5773 41.5098 43.4527 41.5688 43.348C41.7463 42.8112 41.9303 42.2764 42.0918 41.7345C42.2051 41.3546 42.2765 40.9622 42.3816 40.5796L42.3811 40.5793C42.5225 40.0024 42.5825 39.4088 42.5591 38.8154C42.5893 38.6287 42.6494 38.4476 42.7382 38.2801C43.1397 38.3726 43.2877 38.5356 43.2476 38.8947C43.1657 39.6233 43.0621 40.35 42.9436 41.0739L42.9432 41.0743C42.8876 41.2648 42.8116 41.4484 42.716 41.6226C42.5281 42.2691 42.2882 42.9001 41.9987 43.5077L41.7631 43.9505Z" fill="black"/>
<path d="M27.3086 58.1954C27.1851 57.9671 27.2539 57.6824 27.4686 57.5368C27.6587 57.3207 27.869 57.1234 28.0973 56.9483C28.5584 56.6227 29.054 56.3492 29.575 56.1334C30.4976 55.8055 31.4537 55.5713 32.3978 55.3074L32.3982 55.307C32.6214 55.2509 32.8477 55.209 33.0765 55.1822C33.1561 55.1611 33.2403 55.1745 33.3088 55.2199C33.3772 55.2654 33.4231 55.3376 33.4347 55.4185C33.3589 55.4658 33.2774 55.5042 33.1926 55.532C31.9547 55.8235 30.7365 56.1918 29.5448 56.6347C28.9547 56.8463 28.4203 57.1902 27.9834 57.6401C27.7905 57.8264 27.5692 57.9826 27.3086 58.1954Z" fill="black"/>
<path d="M39.6405 45.1796C39.6838 44.9986 39.7141 44.8127 39.7724 44.6361C40.0512 43.7936 40.3446 42.9559 40.6168 42.1114C40.6859 41.8974 40.7413 41.6598 40.4595 41.5108L40.3883 41.2681L40.4286 41.0897C40.6075 40.5216 40.748 39.9372 40.9798 39.3914L40.981 39.3918C41.1403 38.9614 41.2308 38.5089 41.249 38.0507L41.2488 37.8692C41.2876 37.7972 41.3582 37.699 41.4188 37.6957L41.5987 37.8518L41.5983 37.8514C41.6438 38.2622 41.6487 38.676 41.6124 39.0877C41.5203 39.4244 41.4007 39.753 41.2532 40.0696C41.1319 40.3816 41.0436 40.7049 40.9892 41.0352C40.8469 42.2192 40.5664 43.3823 40.1536 44.5011C40.0633 44.753 39.9274 44.9882 39.8127 45.2311L39.6405 45.1796Z" fill="black"/>
<path d="M55.1996 38.0395C55.3899 38.305 55.3192 38.4531 55.1648 38.5906L55.1652 38.5902C54.372 39.3131 53.3846 39.7876 52.3245 39.9552C51.9505 40.0087 51.5722 40.0256 51.195 40.0066C50.8111 39.9942 50.7471 39.8694 50.8725 39.4845C51.9923 39.5268 53.1011 39.2475 54.0669 38.6786L54.9426 38.1858L55.1996 38.0395Z" fill="black"/>
<path d="M41.1295 35.9585L40.8332 35.758C40.7258 35.6935 40.6501 35.5877 40.6231 35.4657C40.596 35.3436 40.6203 35.216 40.6906 35.1123C40.8916 34.7368 41.1567 34.3999 41.4737 34.1157C41.633 33.9803 41.7992 33.8534 41.9719 33.7361C42.1994 33.5459 42.4404 33.7014 42.6676 33.7119C42.8515 33.7207 42.8617 33.9004 42.8291 34.072C42.729 34.3924 42.5382 34.6769 42.2805 34.8924C41.9836 35.2159 41.6505 35.507 41.3308 35.8101L41.1295 35.9585Z" fill="black"/>
<path d="M56.0421 27.7491C55.9552 27.8849 55.8612 28.0159 55.7597 28.1409L55.5622 28.1912L55.4813 28.0058L55.4814 28.0066C55.5672 27.5559 55.6857 27.1118 55.8348 26.6776C56.1082 25.9129 56.2324 25.1024 56.2003 24.2905C56.1721 24.1105 56.1301 23.9334 56.0751 23.7597C56.0609 23.6757 56.0846 23.5893 56.1402 23.5248C56.1979 23.4825 56.3442 23.4749 56.3877 23.5177L56.388 23.5173C56.5015 23.6114 56.5835 23.7381 56.6228 23.8802C56.6959 24.2551 56.7168 24.6385 56.6843 25.0188C56.5638 25.8023 56.3739 26.5744 56.2037 27.3483C56.1613 27.4861 56.107 27.62 56.0421 27.7491Z" fill="black"/>
<path d="M17.7753 24.9994L17.7569 24.8678L17.7565 24.8674C17.9639 23.1307 18.4398 21.437 19.167 19.8458C19.3877 19.4425 19.6319 19.0527 19.8977 18.6778C19.9588 18.5893 20.0354 18.5124 20.1231 18.4501C20.3253 18.3008 20.3822 18.3269 20.545 18.6146C19.9548 19.1907 19.498 19.8893 19.2073 20.6614C19.1112 20.8868 18.9756 21.0972 18.899 21.328C18.6427 22.0982 18.3954 22.8726 18.1677 23.6523C18.1094 23.8897 18.0828 24.1341 18.0888 24.3784C18.0817 24.6146 18.0038 24.8435 17.8659 25.0352L17.7753 24.9994Z" fill="black"/>
<path d="M22.6106 20.7621C22.347 20.4263 22.4585 20.176 22.4987 19.9536L22.4995 19.9536C22.5948 19.3681 22.724 18.7887 22.8865 18.2187C23.0588 17.4104 23.3702 16.6388 23.8069 15.9372C24.0072 15.7113 24.24 15.516 24.4977 15.3581C24.5523 15.326 24.6213 15.3318 24.6699 15.3723C24.7189 15.4132 24.7361 15.4803 24.7146 15.5398C24.6395 15.916 24.4099 16.243 24.0825 16.4422C23.9484 16.5031 23.8377 16.607 23.7685 16.7375C23.4881 17.3147 23.2798 17.9247 23.1497 18.5533C23.0376 19.1085 22.9259 19.6642 22.8037 20.2172L22.8032 20.2168C22.7494 20.402 22.6849 20.5838 22.6106 20.7621Z" fill="black"/>
<path d="M20.7451 22.545C20.6716 22.2144 20.6991 21.8692 20.8235 21.5547C20.95 21.2117 21.0299 20.8505 21.1465 20.5024C21.4127 19.7101 21.6848 18.9199 21.9628 18.1315C22.0599 17.697 22.2483 17.2875 22.5155 16.9312L22.8693 16.5942C23.1043 16.7777 23.0845 16.9359 22.946 17.1308C22.5063 17.7547 22.1725 18.4463 21.957 19.1786C21.8549 19.5139 21.7044 19.8338 21.5983 20.1677C21.4084 20.7632 21.2174 21.3591 21.0632 21.9638L21.0627 21.9634C21.0061 22.1855 20.8903 22.3873 20.7285 22.5492L20.7451 22.545Z" fill="black"/>
<path d="M21.921 17.6724C21.7997 17.8245 21.7037 17.9628 21.5909 18.0844C21.1437 18.6295 20.7948 19.2484 20.5595 19.9131C20.4173 20.217 20.2941 20.5302 20.1911 20.8496C20.0587 21.3024 19.9705 21.7684 19.8567 22.2266C19.7832 22.5224 19.7025 22.817 19.6133 23.1084L19.6129 23.1088C19.5664 23.2021 19.508 23.2892 19.4404 23.3688L19.3587 23.169C19.4961 22.2027 19.7323 21.2529 20.0624 20.3346C20.2388 19.8302 20.4462 19.3369 20.684 18.8587C20.8459 18.3799 21.1164 17.9455 21.4743 17.5896C21.6451 17.4668 21.768 17.4457 21.921 17.6724Z" fill="black"/>
<path d="M20.6551 30.0618C20.9185 30.0546 21.1672 30.1822 21.3157 30.3995C21.961 31.0723 22.5899 31.7615 23.2368 32.4326C23.3715 32.5292 23.5122 32.6167 23.6587 32.6951C23.7365 32.774 23.8033 32.8635 23.8578 32.9608C23.7734 33.011 23.6878 33.1048 23.6057 33.1016L23.6052 33.1012C23.442 33.1049 23.2803 33.0654 23.1377 32.986C22.9151 32.8242 22.71 32.6395 22.5263 32.4353C22.0346 31.9116 21.5471 31.3834 21.0732 30.8431C20.9128 30.6424 20.767 30.4297 20.6378 30.2077L20.6551 30.0618Z" fill="black"/>
<path d="M30.7782 41.2174L30.7253 41.0972C30.9731 40.4574 31.1724 39.7999 31.3214 39.1299C31.4884 38.686 31.6842 38.2529 31.9077 37.8346C32.2398 37.2303 32.6118 36.6481 32.9735 36.0605C33.0265 35.9685 33.101 35.8905 33.1898 35.833C33.2732 35.7713 33.3857 35.7675 33.4731 35.824C33.56 35.88 33.6029 35.9844 33.5812 36.0855C33.5515 36.444 33.3573 36.7687 33.055 36.963C32.7933 37.0899 32.583 37.3024 32.4582 37.565C32.0762 38.3163 31.7098 39.0756 31.3586 39.8425C31.1939 40.202 31.0828 40.5861 30.9403 40.9564L30.7782 41.2174Z" fill="black"/>
<path d="M57.5184 32.2079C57.5596 31.9734 57.585 31.7346 57.6448 31.5047C57.8338 30.7826 58.0838 30.0736 58.2151 29.3423L58.2152 29.3431C58.3245 28.8028 58.3536 28.2496 58.301 27.7013C58.2246 27.112 58.2429 26.5142 58.3547 25.9306L58.5058 26.1011C58.6684 27.1362 58.6996 28.1877 58.5984 29.2304C58.3933 30.2655 58.0862 31.2782 57.6832 32.2534L57.5184 32.2079Z" fill="black"/>
<path d="M47.3379 35.8853C47.2689 35.8423 47.2068 35.7889 47.1539 35.7271C47.1112 35.6554 47.0643 35.5497 47.0887 35.4844L47.2999 35.3614C47.4476 35.3354 47.6009 35.3479 47.7501 35.3278C48.5075 35.1959 49.1915 34.7934 49.6742 34.1952L49.7995 34.0657C49.9065 34.0359 50.055 33.9878 50.1248 34.0368C50.2024 34.1193 50.2308 34.2365 50.1996 34.3457C50.0738 34.6051 49.9002 34.8384 49.6878 35.0338C49.2726 35.418 48.7701 35.6951 48.2237 35.842C48.0297 35.8757 47.8352 35.9159 47.639 35.9317C47.537 35.9289 47.4358 35.9132 47.3379 35.8853Z" fill="black"/>
<path d="M20.4397 36.8612C20.2075 37.1776 19.8349 37.3605 19.4428 37.3515C18.9738 37.341 18.497 37.4228 18.0359 37.3656C17.5229 37.2891 17.0197 37.163 16.5314 36.9889C16.2439 36.8978 16.0286 36.6577 15.9685 36.362C16.0942 36.3648 16.219 36.382 16.3406 36.4129C17.4999 36.9107 18.7765 37.0715 20.0233 36.8783L20.4397 36.8612Z" fill="black"/>
<path d="M56.8705 29.2863C56.7953 28.6313 56.8492 27.9678 57.0302 27.334C57.1745 26.7242 57.3042 26.1113 57.419 25.4948C57.4766 25.1879 57.4882 24.8723 57.5214 24.5563C57.8599 24.5619 57.9659 24.6593 57.9197 24.9787C57.8298 25.5963 57.7342 26.2126 57.6334 26.8288C57.6104 26.9651 57.5713 27.0976 57.5175 27.2252C57.3234 27.7221 57.2048 28.2458 57.1646 28.7783C57.1762 28.9911 57.0607 29.1901 56.8705 29.2863Z" fill="black"/>
<path d="M23.5394 28.5726L23.784 28.491C23.8664 28.5217 23.9307 28.5885 23.9573 28.6722C23.9888 28.818 23.9446 28.9839 23.9874 29.123L23.9878 29.1234C24.1853 29.8828 24.6464 30.548 25.2888 30.9999C25.3574 31.0326 25.4204 31.0755 25.4757 31.1281C25.5166 31.1822 25.5539 31.2809 25.5302 31.3309L25.5306 31.3305C25.4929 31.4081 25.4237 31.4658 25.3406 31.4899C25.11 31.5113 24.8801 31.4362 24.707 31.2817C24.1165 30.8362 23.7188 30.1816 23.596 29.452C23.5595 29.2881 23.5333 29.1221 23.5174 28.9547C23.5157 28.8273 23.5227 28.6994 23.5394 28.5726Z" fill="black"/>
<path d="M24.2923 31.9573C24.1645 32.1209 23.931 32.1564 23.7595 32.0382C23.4939 31.888 23.2412 31.7167 23.0038 31.525C22.5538 31.107 22.2167 30.5817 22.0247 29.9978C21.9871 29.8655 21.959 29.7304 21.9403 29.5939C21.9184 29.5355 21.924 29.4701 21.9554 29.4156C21.9865 29.3616 22.04 29.3239 22.1018 29.3133C22.1599 29.2874 22.2264 29.291 22.2809 29.3232C22.335 29.355 22.3709 29.4114 22.3767 29.4743C22.5395 30.0214 22.8414 30.5165 23.253 30.9122C23.4685 31.1487 23.7186 31.3534 23.9474 31.5783L24.2923 31.9573Z" fill="black"/>
<path d="M20.6604 35.2365C20.5424 35.2725 20.4201 35.2947 20.2963 35.3026C20.127 35.3054 19.9586 35.2742 19.8017 35.2108C19.1097 35.0238 18.4677 34.6846 17.9243 34.2177C17.8085 34.1169 17.6838 34.0285 17.5499 33.9539C17.3083 33.7668 17.2638 33.6541 17.2888 33.2686C17.4364 33.3373 17.6061 33.3637 17.6834 33.4618C18.1224 33.9132 18.6704 34.2439 19.2743 34.4209C19.6116 34.5665 19.956 34.6964 20.2886 34.8522C20.4268 34.9314 20.558 35.0226 20.6799 35.1251L20.6604 35.2365Z" fill="black"/>
<path d="M43.7534 53.457L43.7913 53.8754L43.7275 54.0464C43.3945 54.8842 43.0595 55.7218 42.7295 56.5606C42.6515 56.7591 42.6059 56.9714 42.5157 57.1642C42.4788 57.2433 42.3649 57.2867 42.2866 57.3469C42.2294 57.2652 42.1324 57.1866 42.1224 57.0988L42.1228 57.0984C42.1099 56.9632 42.1288 56.8263 42.1787 56.6997C42.4678 55.9749 42.7672 55.254 43.0686 54.5341C43.1872 54.2515 43.3151 53.9728 43.4496 53.6977L43.45 53.6973C43.5045 53.6036 43.5667 53.5139 43.6365 53.4301L43.7534 53.457Z" fill="black"/>
<path d="M44.1789 49.9178C44.2034 50.1331 44.2152 50.3499 44.2142 50.5666C44.2018 50.7655 44.1645 50.9618 44.1029 51.1514C43.8278 52.01 43.5471 52.8674 43.2541 53.7198C43.1777 53.9031 43.0825 54.0777 42.9699 54.2413C42.8236 54.4922 42.6547 54.7296 42.4648 54.9498L42.791 53.8837C42.9285 53.4514 43.0697 53.0192 43.2162 52.5896C43.28 52.4035 43.3812 52.2281 43.4329 52.0395C43.582 51.4954 43.7128 50.9463 43.8554 50.4003L44.012 49.8993L44.1789 49.9178Z" fill="black"/>
<path d="M44.4634 29.6778C45.0433 29.8106 45.1757 29.9672 45.0479 30.4174L45.0483 30.417C44.9157 30.8387 44.7571 31.2514 44.5723 31.6527C44.4705 31.8904 44.3335 32.1125 44.1918 32.3804L44.2893 32.5869C44.3375 32.6491 44.3523 32.7306 44.3292 32.8062C44.3062 32.8818 44.2478 32.9409 44.1732 32.9658C44.0088 33.0426 43.8471 33.0538 43.7391 32.8606L43.7395 32.8602C43.5856 32.6252 43.5883 32.3213 43.7455 32.0885C44.0297 31.6194 44.2905 31.1368 44.5261 30.6417C44.5856 30.4578 44.6038 30.2625 44.5798 30.0704C44.5565 29.9358 44.5174 29.8036 44.4634 29.6778Z" fill="black"/>
<path d="M40.5759 28.8803C40.8488 28.5321 40.8625 28.5338 41.1181 28.6774C41.4588 28.8731 41.6772 29.2281 41.6981 29.6207C41.7798 30.2641 41.6403 30.9168 41.3027 31.4706C41.2713 31.5403 41.2243 31.602 41.165 31.6504C41.0798 31.6938 40.9492 31.7396 40.8817 31.7034C40.8011 31.6402 40.7554 31.5424 40.7595 31.4398C40.793 31.3077 40.8429 31.1803 40.9087 31.0612C41.0751 30.7024 41.1671 30.3141 41.1784 29.9194C41.26 29.4718 41.0042 29.0317 40.5759 28.8803Z" fill="black"/>
<path d="M40.8395 55.8736C40.8284 55.7643 40.8368 55.6535 40.8629 55.5465C41.0512 55.0763 41.2775 54.6211 41.4547 54.1471C41.6154 53.7195 41.7307 53.2756 41.8656 52.8386L41.8744 52.7933C41.8976 52.6186 41.9862 52.4911 42.1742 52.5225C42.3682 52.5547 42.4025 52.7151 42.3586 52.8789L42.3583 52.8794C42.2647 53.2829 42.1492 53.6805 42.0118 54.0713C41.795 54.6282 41.5374 55.169 41.2864 55.7118C41.1805 55.9414 41.0369 56.0043 40.8395 55.8736Z" fill="black"/>
<path d="M54.3619 26.5237C54.6098 25.2245 54.7231 23.903 54.6988 22.5802L54.9809 22.8143L54.9813 22.8147C55.0659 23.0103 55.1195 23.2176 55.1402 23.4295C55.1767 24.087 55.1135 24.7467 54.9524 25.3853C54.8819 25.6338 54.8586 25.8964 54.7755 26.1396L54.7752 26.14C54.7034 26.297 54.6139 26.4457 54.5083 26.5829L54.3619 26.5237Z" fill="black"/>
<path d="M24.8331 28.444C25.0403 28.4615 25.2195 28.5964 25.294 28.7906L25.8404 29.8501L26.245 30.6694L26.2847 30.752C26.3404 30.9324 26.5149 31.1427 26.2752 31.2833C26.054 31.4124 25.9493 31.1919 25.8625 31.0367C25.6395 30.6396 25.4097 30.244 25.2202 29.8306L25.2198 29.8302C25.0784 29.4934 24.9577 29.1486 24.8587 28.7975C24.8368 28.6808 24.8283 28.5625 24.8331 28.444Z" fill="black"/>
<path d="M39.1079 28.7166C39.3764 28.5541 39.725 28.6355 39.8936 28.8997C40.142 29.3083 40.2187 29.7993 40.1068 30.2646C40.0599 30.5046 39.9949 30.7411 39.9118 30.9706C39.8997 31.056 39.851 31.1322 39.7793 31.1801C39.7071 31.2276 39.6184 31.242 39.5353 31.2197C39.3551 31.178 39.3722 31.0219 39.3978 30.8819L39.5033 30.3442C39.5402 30.0892 39.5706 29.8329 39.5922 29.5763C39.6417 29.2955 39.5061 29.0139 39.2546 28.8785C39.1977 28.8328 39.1484 28.7779 39.1079 28.7166Z" fill="black"/>
<path d="M50.9288 32.7862L50.2017 32.6011L50.398 32.1093L50.6729 31.3421C50.7335 31.1698 50.7638 30.9779 51.0283 31.0134C51.4394 31.069 51.6181 31.1944 51.5861 31.4743C51.5616 31.6555 51.5064 31.8312 51.4242 31.9947C51.3416 32.1231 51.2516 32.2463 51.1545 32.3647C51.0742 32.4906 51.0126 32.6286 50.9288 32.7862Z" fill="black"/>
<path d="M31.9215 27.857C32.3855 27.731 32.8699 27.9737 33.0468 28.4205C33.2675 28.8777 33.3458 29.3915 33.2704 29.894L33.2213 30.1153C33.1408 30.2887 32.9581 30.3038 32.8718 30.1346L32.8714 30.1351C32.8071 29.9963 32.7616 29.8501 32.7363 29.7C32.693 29.4913 32.6604 29.2808 32.6384 29.0686C32.6181 28.6644 32.4006 28.2957 32.0568 28.0822L31.9215 27.857Z" fill="black"/>
<path d="M26.2409 28.0333C26.3807 28.0609 26.518 28.1006 26.6507 28.1521C27.2457 28.4819 27.6873 29.0318 27.8806 29.6836C27.9506 29.8692 28.0058 30.0605 28.0467 30.2549C28.0683 30.3221 28.0603 30.3952 28.0245 30.4563C27.9882 30.5171 27.9282 30.5595 27.8589 30.5725C27.705 30.6148 27.6287 30.5206 27.5794 30.4006L27.4066 29.9272L27.4062 29.9268C27.2827 29.3088 26.9139 28.7665 26.3841 28.4248C26.2876 28.3701 26.2392 28.2296 26.169 28.1287L26.2409 28.0333Z" fill="black"/>
<path d="M29.8522 27.7363C30.0069 27.5688 30.2622 27.5445 30.4462 27.6784C30.5911 27.7637 30.7186 27.875 30.8229 28.0073C31.1409 28.4448 31.3157 28.9701 31.3219 29.5109C31.3341 29.6765 31.3515 29.8854 31.1296 29.9214C30.928 29.9544 30.8992 29.7557 30.8535 29.6147C30.7693 29.3519 30.6878 29.0877 30.6181 28.8205C30.5573 28.4514 30.3402 28.127 30.0226 27.9301C29.9568 27.8741 29.8993 27.8089 29.8522 27.7363Z" fill="black"/>
<path d="M29.5024 30.3945C29.4143 30.3094 29.3382 30.2124 29.2761 30.1067C29.1489 29.8106 29.0542 29.502 28.9939 29.1856C28.9682 28.8085 28.7121 28.4862 28.35 28.3768L28.0493 28.2201C28.0635 28.1426 28.1101 28.0745 28.1775 28.0333C28.2452 27.9924 28.327 27.9824 28.4026 28.0055C28.7434 28.0405 29.0567 28.2085 29.2748 28.4724C29.5978 28.9281 29.7428 29.4858 29.683 30.041C29.6416 30.1675 29.5805 30.2872 29.5024 30.3945Z" fill="black"/>
<path d="M48.885 33.7746C48.4731 34.3741 47.8302 34.7739 47.1105 34.8791L46.9279 34.889L46.7178 34.7657L46.7174 34.7653C46.7177 34.6678 46.7602 34.5748 46.8343 34.5108C47.0364 34.3759 47.2676 34.2846 47.471 34.1508C47.7623 33.9588 48.0388 33.7435 48.3214 33.5383L48.503 33.4101C48.6307 33.4048 48.7561 33.4407 48.8619 33.5121C48.9205 33.5677 48.8827 33.7256 48.885 33.7746Z" fill="black"/>
<path d="M35.7942 28.1608C36.3323 28.1703 36.3772 28.225 36.5244 28.6095L36.5252 28.6094C36.7012 29.1494 36.7496 29.7227 36.667 30.2848C36.6561 30.4069 36.623 30.5258 36.5694 30.6362C36.5426 30.7024 36.4795 30.7466 36.4077 30.7489C36.3366 30.7512 36.2705 30.7108 36.2399 30.6469C36.1875 30.5371 36.1582 30.4175 36.1556 30.2962C36.144 30.053 36.146 29.8091 36.1615 29.566C36.231 29.1522 36.1172 28.7287 35.8495 28.4059L35.7942 28.1608Z" fill="black"/>
<path d="M43.4143 29.5958C43.4954 30.0218 43.4447 30.463 43.2687 30.8595C43.1443 31.1868 42.9966 31.507 42.8458 31.8221C42.802 31.9192 42.728 31.9992 42.6344 32.0502C42.5368 32.0931 42.4106 32.0724 42.2967 32.0794C42.2911 31.9689 42.2474 31.8418 42.2868 31.7514C42.4853 31.2917 42.712 30.8446 42.9145 30.3863L42.9141 30.3859C42.9723 30.2297 43.0163 30.0682 43.0454 29.904C43.0863 29.7315 43.1348 29.5718 43.4143 29.5958Z" fill="black"/>
<path d="M33.8334 28.0404C34.1349 27.9629 34.4509 28.1 34.6008 28.3724C34.8685 28.9302 34.9156 29.5683 34.7343 30.1593C34.6872 30.2642 34.5976 30.3438 34.4879 30.3766C34.4475 30.3904 34.3232 30.2576 34.2929 30.1713C34.2417 30.0458 34.2263 29.9092 34.2466 29.7758C34.411 29.2265 34.2796 28.6317 33.9001 28.2027L33.8334 28.0404Z" fill="black"/>
<path d="M38.2861 31.1394C38.0296 30.9587 37.8942 30.6515 37.9337 30.3404C37.9285 29.8407 37.9361 29.3403 37.9273 28.8404C37.914 28.6988 37.89 28.559 37.8554 28.4218C38.0087 28.3827 38.1655 28.4717 38.2108 28.6231C38.3252 28.8371 38.4025 29.0687 38.4407 29.3077C38.4623 29.7781 38.4587 30.2495 38.4291 30.7196C38.3994 30.865 38.3511 31.006 38.2861 31.1394Z" fill="black"/>
<path d="M41.6682 44.5737C41.5305 46.1803 41.151 47.7573 40.5426 49.2503C40.4482 48.6531 40.7554 48.1788 40.8275 47.6673C40.9039 47.1248 41.0569 46.5925 41.1844 46.0572C41.3051 45.549 41.4355 45.0435 41.5626 44.5358L41.6682 44.5737Z" fill="black"/>
<path d="M46.5216 30.4653C46.2653 31.5584 45.5947 32.5088 44.6513 33.1177C44.5389 32.9388 44.646 32.7983 44.744 32.6687C44.8909 32.4744 45.0657 32.2999 45.2064 32.1008C45.4955 31.6914 45.7725 31.2734 46.0495 30.8555L46.0495 30.8563C46.1505 30.6702 46.3201 30.5302 46.5216 30.4653Z" fill="black"/>
<path d="M16.9088 35.1902C17.0848 35.032 17.2453 35.11 17.399 35.1644C18.0326 35.3885 18.6657 35.6151 19.2977 35.8454L19.4585 35.929C19.4281 36.2376 19.1853 36.2488 19.0155 36.2192L19.0147 36.2193C18.6234 36.161 18.2394 36.0592 17.8706 35.915C17.5718 35.7621 17.2892 35.5793 17.028 35.3684C16.9784 35.3164 16.9375 35.2562 16.9088 35.1902Z" fill="black"/>
<path d="M39.3743 52.0128C39.6703 51.994 39.7893 52.0742 39.7585 52.3605L39.7585 52.3597C39.7267 52.9581 39.594 53.5465 39.3671 54.1011C39.3208 54.2044 39.229 54.2813 39.119 54.3093C38.9485 54.2973 38.9346 54.1294 38.9496 53.9867L39.0175 53.6253L39.3743 52.0128Z" fill="black"/>
<path d="M37.6461 51.673C38.1458 51.579 38.2517 51.6536 38.21 52.062L38.2096 52.0624C38.1735 52.4424 38.1165 52.8204 38.0393 53.1947C37.9908 53.3537 37.9081 53.5 37.796 53.6224C37.732 53.6803 37.6424 53.7015 37.5592 53.6785C37.4888 53.6259 37.4483 53.5426 37.4504 53.455C37.4764 53.2729 37.517 53.0932 37.5722 52.9176C37.7221 52.5197 37.7481 52.0859 37.6461 51.673Z" fill="black"/>
<path d="M33.2768 16.0657C33.2457 15.9203 33.2273 15.7718 33.2228 15.623C33.2243 15.0118 33.3674 14.4093 33.6407 13.8629L33.7134 13.7454C33.8146 13.6072 33.9317 13.4362 34.1169 13.5728C34.2802 13.6934 34.2213 13.8537 34.1028 14.012C33.8321 14.3688 33.6809 14.8019 33.6701 15.2493C33.6645 15.5658 33.5204 15.8642 33.2768 16.0657Z" fill="black"/>
<path d="M51.459 23.2833C51.2685 23.1534 51.2021 22.9036 51.3028 22.6967C51.4516 22.2789 51.5694 21.8509 51.6549 21.4158C51.692 21.2315 51.6061 21.0263 51.6067 20.8305C51.6071 20.7437 51.6813 20.6585 51.7229 20.5715C51.7877 20.6244 51.8838 20.6635 51.9118 20.7311L51.9114 20.7308C52.059 21.0193 52.0927 21.3528 52.0041 21.6646C51.8791 22.0415 51.8111 22.4369 51.6991 22.8186C51.6336 22.9805 51.5529 23.1363 51.459 23.2833Z" fill="black"/>
<path d="M35.6381 13.8938C35.6793 14.093 35.7532 14.2397 35.7247 14.3628C35.6603 14.5977 35.5745 14.827 35.4693 15.0465C35.3302 15.369 35.1841 15.6891 35.0318 16.0059C34.9712 16.1327 34.8859 16.2481 34.7758 16.4283L34.7754 16.4287C34.7325 15.5054 35.0405 14.5998 35.6381 13.8938Z" fill="black"/>
<path d="M31.8362 15.6873C31.828 15.5291 31.8069 15.37 31.8131 15.2126L31.8135 15.2121C31.8071 14.6445 31.9537 14.0854 32.2388 13.5943C32.2989 13.4875 32.3814 13.3947 32.4794 13.3218C32.5501 13.2768 32.7002 13.259 32.7514 13.3034C32.8159 13.3803 32.8399 13.4837 32.816 13.5813C32.7661 13.6927 32.6973 13.7948 32.6122 13.8829C32.3538 14.2251 32.1961 14.6334 32.157 15.06C32.1181 15.2783 32.0643 15.4939 31.997 15.7049L31.8362 15.6873Z" fill="black"/>
<path d="M16.8984 25.019C16.726 24.9357 16.7155 24.8012 16.7583 24.6326C16.9229 23.9833 17.1007 23.3362 17.2317 22.6804C17.3058 22.2275 17.4596 21.7915 17.6861 21.3927C17.8039 21.1989 17.8613 20.9691 17.9612 20.7623C18.0302 20.6718 18.1102 20.5911 18.1999 20.5207C17.9163 21.3406 17.6356 22.0577 17.4233 22.7939C17.2121 23.5264 17.0696 24.2788 16.8965 25.022L16.8984 25.019Z" fill="black"/>
<path d="M25.0373 17.2553C24.7931 16.8649 24.9591 16.5369 24.9943 16.2197L24.9947 16.2201C25.0363 15.9496 25.0998 15.6828 25.1836 15.4228C25.2065 15.1758 25.3684 14.9631 25.6007 14.8758C25.6332 14.9815 25.7014 15.0821 25.6821 15.1603C25.5223 15.7933 25.347 16.4223 25.1725 17.0513L25.0373 17.2553Z" fill="black"/>
<path d="M29.1952 15.5895L29.0766 15.2914C29.1144 14.7437 29.2551 14.2073 29.4904 13.7109C29.5454 13.6132 29.6454 13.5482 29.7571 13.5377C29.8256 13.5552 29.8826 13.6024 29.912 13.6668C29.9407 13.7312 29.9395 13.8052 29.9078 13.8685C29.7498 14.3303 29.5919 14.7921 29.4217 15.2498L29.4221 15.2494C29.3579 15.37 29.2822 15.484 29.1952 15.5895Z" fill="black"/>
<path d="M48.1887 21.1108C48.0842 20.7388 48.3301 20.3961 48.3292 20.0344C48.3282 19.6764 48.3039 19.3188 48.2902 18.963C48.3721 18.9326 48.463 18.9428 48.5359 18.9908C48.6088 19.038 48.6543 19.1183 48.6591 19.2051C48.756 19.7462 48.7291 20.3029 48.5808 20.8325C48.5186 20.9594 48.4325 21.0732 48.3273 21.1676L48.1887 21.1108Z" fill="black"/>
<path d="M30.4075 15.1564C30.5137 14.4919 30.7213 13.8472 31.0235 13.2457C31.1101 13.237 31.196 13.2723 31.2516 13.3396C31.3072 13.4069 31.3257 13.4978 31.3007 13.5815C31.1973 14.1567 30.9418 14.6925 30.5606 15.1353L30.4075 15.1564Z" fill="black"/>
<path d="M46.4058 32.6047C46.645 32.9626 46.6333 32.9528 46.4224 33.2125C46.2187 33.4641 45.9228 33.6249 45.6005 33.6572C45.5099 33.6685 45.337 33.6188 45.3281 33.5729L45.3285 33.5733C45.3291 33.4593 45.3526 33.3469 45.3977 33.2426L45.4282 33.2093L46.4058 32.6047Z" fill="black"/>
<path d="M36.8945 51.8523C36.9561 52.3686 36.8651 52.8919 36.6317 53.3566C36.5387 53.3581 36.4505 53.3169 36.3923 53.2449C36.3336 53.1734 36.3109 53.0787 36.3303 52.9877C36.3578 52.6841 36.3792 52.3795 36.4252 52.0781C36.4662 51.8033 36.4787 51.8054 36.8945 51.8523Z" fill="black"/>
<path d="M37.8466 16.8812C37.6906 16.2234 37.8756 15.5311 38.3401 15.0394C38.4085 15.0545 38.4676 15.0976 38.502 15.1581C38.5365 15.2194 38.5433 15.2921 38.5209 15.3585C38.3686 15.8208 38.1906 16.2745 38.0122 16.7279L37.8466 16.8812Z" fill="black"/>
<path d="M53.6335 24.5231C53.4689 24.4218 53.4903 24.2643 53.5362 24.1227L53.5365 24.1223C53.6681 23.7491 53.7039 23.3482 53.6395 22.9576C53.6259 22.8832 53.6361 22.806 53.6679 22.7375C53.6988 22.6727 53.7565 22.6251 53.8259 22.607L54.0007 22.7206C54.0462 22.8812 54.0748 23.0463 54.0846 23.2128C54.1589 23.6972 53.9901 24.1872 53.6335 24.5231Z" fill="black"/>
<path d="M38.0971 36.496C38.0172 37.2317 37.8781 37.9599 37.6818 38.6732C37.634 38.7925 37.5701 38.9043 37.4917 39.0061L37.395 38.9846C37.3702 38.8956 37.3584 38.8031 37.3601 38.7107C37.4067 37.9208 37.661 37.1563 38.0971 36.496Z" fill="black"/>
<path d="M50.0501 19.5937C50.3003 19.7028 50.4293 19.9815 50.3508 20.2432C50.2532 20.5946 50.1751 20.9514 50.0734 21.3014C50.0231 21.4276 49.9601 21.5486 49.8868 21.6633C49.6822 21.4654 49.7435 21.2762 49.7764 21.0806C49.8325 20.745 50.0321 20.432 49.8835 20.0575C49.84 19.9488 49.9831 19.7656 50.0501 19.5937Z" fill="black"/>
<path d="M49.9775 25.3727L49.9784 23.5197C50.1276 23.4345 50.2342 23.521 50.3121 23.6371L50.3125 23.6374C50.5955 24.2264 50.4595 24.9316 49.9775 25.3727Z" fill="black"/>
<path d="M46.8184 18.4113C46.9249 18.6197 47.0675 18.7651 47.052 18.8922C46.9917 19.4007 46.8852 19.9041 46.7858 20.4071L46.6173 20.6372L46.4734 20.3505L46.473 20.3509C46.6087 19.7888 46.6769 19.2123 46.6771 18.6348L46.8184 18.4113Z" fill="black"/>
<path d="M36.1265 16.4664L36.1094 16.0924C36.1574 15.6669 36.3303 15.2655 36.6071 14.9391C36.6992 14.817 36.8458 14.7279 36.9986 14.877C37.1336 15.008 37.0599 15.1367 36.9594 15.2361C36.698 15.4937 36.516 15.8217 36.4359 16.1798C36.3863 16.296 36.3174 16.4032 36.233 16.4974L36.1265 16.4664Z" fill="black"/>
<path d="M40.3132 37.509C40.5056 37.6445 40.5672 37.9021 40.4562 38.1096C40.3646 38.352 40.2866 38.5996 40.2231 38.8505C40.1849 38.9785 40.1239 39.0845 39.9691 39.0525C39.8038 39.0187 39.8156 38.8906 39.8374 38.7631C39.887 38.4619 39.9301 38.1594 39.9849 37.859L39.985 37.8598C39.9959 37.6794 40.1338 37.5324 40.3132 37.509Z" fill="black"/>
<path d="M45.1914 19.6011C45.1399 19.05 45.1844 18.494 45.3219 17.9577L45.5186 17.8112L45.6801 17.9287C45.616 18.4769 45.7192 19.0592 45.369 19.5511L45.1914 19.6011Z" fill="black"/>
<path d="M26.9166 14.2558C27.0563 14.3393 27.1232 14.5048 27.0806 14.6614C26.9333 15.173 26.6716 15.6448 26.3158 16.0407C26.3074 15.7246 26.3614 15.4099 26.4753 15.1148C26.5965 14.8232 26.5509 14.4312 26.9166 14.2558Z" fill="black"/>
<path d="M52.4113 24.2735C52.7748 24.2765 52.8558 24.3552 52.7975 24.607L52.6512 25.2688L52.6516 25.2684C52.6272 25.5831 52.4168 25.8523 52.118 25.9521C52.2039 25.6205 52.2921 25.3523 52.3391 25.0776C52.3854 24.812 52.3898 24.5392 52.4113 24.2735Z" fill="black"/>
<path d="M48.9887 22.8205C49.2096 23.2074 49.2134 23.6816 48.9984 24.0718C48.937 24.2146 48.8564 24.3485 48.6027 24.2552C48.6327 23.756 48.7641 23.268 48.9887 22.8205Z" fill="black"/>
<path d="M44.0142 19.1526C43.9608 19.038 43.9207 18.9179 43.8952 18.7942C43.8795 18.4904 43.881 18.187 43.9 17.8834C43.9123 17.7716 43.9785 17.6725 44.077 17.6176C44.1461 17.6023 44.2187 17.6211 44.2721 17.669C44.325 17.7164 44.3516 17.7865 44.3438 17.8569C44.3778 18.3135 44.2622 18.7678 44.0142 19.1526Z" fill="black"/>
<path d="M27.7339 15.1574L27.5776 14.9656C27.547 14.572 27.64 14.1785 27.8438 13.8397L28.0844 13.7742L28.1706 13.9114L28.171 13.9118C28.1276 14.3558 27.9778 14.7832 27.7339 15.1574Z" fill="black"/>
<path d="M34.8003 52.8316L34.6881 52.5467C34.7058 52.2608 34.7382 51.9745 34.7831 51.6911L34.935 51.5589L35.1076 51.6682L35.108 51.667C35.2527 51.9909 35.2377 52.3634 35.0668 52.674C35.0322 52.7439 34.9097 52.7697 34.8003 52.8316Z" fill="black"/>
<path d="M42.863 17.1031C43.0693 17.0955 43.1733 17.1857 43.1315 17.3219C42.9957 17.7709 42.8322 18.2119 42.6756 18.6544L42.525 18.6794C42.521 18.1352 42.6365 17.5974 42.863 17.1031Z" fill="black"/>
<path d="M36.7887 35.6326C37.0961 36.251 36.726 36.6416 36.5186 37.1493L36.3354 36.8895L36.3354 36.8887C36.3867 36.5746 36.4549 36.2635 36.541 35.9571C36.6059 35.8364 36.6895 35.7272 36.7887 35.6326Z" fill="black"/>
<path d="M35.5238 37.0561C35.1693 36.7328 35.2493 36.3384 35.3117 35.9553C35.3142 35.8689 35.3581 35.7885 35.4306 35.7398C35.5028 35.6915 35.5942 35.6818 35.675 35.7126C35.6944 36.1659 35.6431 36.6188 35.5238 37.0561Z" fill="black"/>
<path d="M56.8871 33.6779C56.9021 33.4169 56.9328 33.1942 56.9224 32.9734C56.9124 32.7605 56.8434 32.55 56.8327 32.3372C56.8215 32.1239 56.6788 31.8967 56.8805 31.6219C57.2029 31.9861 57.1181 32.4196 57.1633 32.7952C57.2217 33.2821 57.1302 33.4653 56.8871 33.6779Z" fill="black"/>
<path d="M33.7617 51.2667C33.961 51.566 34.0043 51.9438 33.8771 52.2808C33.8519 52.3385 33.7964 52.3767 33.7339 52.3813C33.671 52.3855 33.611 52.3552 33.5777 52.3019C33.3653 51.9605 33.4446 51.5138 33.7617 51.2667Z" fill="black"/>
<path d="M41.1936 16.204C41.4138 16.3735 41.547 16.6324 41.5557 16.9101C41.5644 17.1878 41.4482 17.4551 41.2396 17.6379C41.1801 17.1624 41.1648 16.6824 41.1936 16.204Z" fill="black"/>
<path d="M34.3682 36.7885C34.2281 36.167 34.3444 35.7626 34.6941 35.5698C34.8769 35.8967 34.7664 36.3412 34.3682 36.7885Z" fill="black"/>
<path d="M47.2633 22.9829L47.413 21.9132C47.743 22.0296 47.8147 22.1864 47.7519 22.5903C47.7069 22.8797 47.6017 22.9657 47.2633 22.9829Z" fill="black"/>
<path d="M39.3178 17.0677C39.1501 16.7171 39.2093 16.3002 39.4682 16.0108C39.5249 15.9661 39.5965 15.9447 39.6684 15.9515L39.7617 16.086C39.598 16.3986 39.6227 16.8013 39.3178 17.0677Z" fill="black"/>
<path d="M34.6153 35.2669C34.659 35.087 34.6849 34.923 34.7401 34.7701L34.7398 34.7705C34.782 34.6795 34.8602 34.6109 34.9553 34.5809C35.0504 34.551 35.1541 34.5621 35.2407 34.6118C35.3117 34.6679 35.3693 34.8742 35.331 34.9126C35.1469 35.0993 34.9696 35.3376 34.6153 35.2669Z" fill="black"/>
<path d="M32.1122 51.377L32.3011 51.2788L32.4695 51.392L32.4696 51.3928C32.4832 51.6007 32.4766 51.8101 32.4487 52.017L32.2535 52.1459L32.0737 51.9778L32.0737 51.9786C32.0736 51.7776 32.0867 51.5771 32.1122 51.377Z" fill="black"/>
<path d="M55.4186 32.2754C55.368 31.8752 55.4091 31.4685 55.5382 31.0862C55.8849 31.3395 55.8501 31.8247 55.4186 32.2754Z" fill="black"/>
<path d="M42.3019 29.1824C42.6726 28.906 42.9405 28.8803 43.1659 29.0847C43.223 29.1359 43.2338 29.238 43.2656 29.3166C43.1743 29.35 43.0738 29.4274 42.9937 29.4094C42.7592 29.3454 42.5281 29.27 42.3019 29.1824Z" fill="black"/>
<path d="M30.8091 51.1999C31.1525 51.3851 31.2439 51.6915 31.0702 51.8852L30.8783 51.9504C30.8071 51.9199 30.7092 51.8321 30.7114 51.7712L30.7106 51.7712C30.7297 51.5784 30.7626 51.3879 30.8091 51.1999Z" fill="black"/>
<path d="M52.6993 22.1734C52.475 21.8782 52.6895 21.6028 52.7285 21.2921L52.9149 21.5374C52.9094 21.7515 52.9387 21.9961 52.6993 22.1734Z" fill="black"/>
<path d="M46.2973 21.2892C46.5483 21.3415 46.7227 21.5706 46.7054 21.8266L46.5236 22.0411L46.3578 21.8658C46.3258 21.6749 46.3058 21.4826 46.2973 21.2892Z" fill="black"/>
<path d="M27.0453 51.1513C26.9578 50.8271 26.9544 50.4859 27.0371 50.1605C27.1769 50.4754 27.1796 50.8342 27.0453 51.1513Z" fill="black"/>
<path d="M27.779 52.4336L28.0291 52.41L28.0656 52.5511L27.9154 52.5976L27.779 52.4336Z" fill="black"/>
<path d="M29.2062 52.1122L29.3881 52.0548L29.4774 52.2342L29.3443 52.3006L29.2062 52.1122Z" fill="black"/>
<path d="M16.8964 25.0208L16.7189 25.4773C16.6575 25.2728 16.7998 25.1555 16.8967 25.0188L16.8964 25.0208Z" fill="black"/>
<path d="M28.9174 33.7119L28.6916 33.6246L28.7146 33.5322L28.9561 33.5859L28.9174 33.7119Z" fill="black"/>
<path d="M56.8686 34.0866C56.9817 34.1524 56.8826 34.3221 56.7695 34.2563C56.6572 34.1904 56.7555 34.0208 56.8686 34.0866Z" fill="black"/>
<path d="M20.7289 22.5503L20.8858 22.7025L20.8241 22.7434L20.7458 22.5458L20.7289 22.5503Z" fill="black"/>
<path d="M28.1312 37.5078C28.4307 37.6862 28.4391 37.8644 28.3259 38.0904C27.9938 38.7599 27.6732 39.4352 27.3439 40.1066L27.3443 40.1062C27.2892 40.2327 27.2161 40.3498 27.1271 40.4549C27.0531 40.5205 26.958 40.558 26.8593 40.559L26.7648 40.3415C26.7646 40.1912 26.7876 40.0413 26.8334 39.8981C26.9329 39.6098 27.0563 39.3293 27.1704 39.0465L27.2433 38.8799C27.2467 38.2294 27.7812 37.9453 28.1312 37.5078Z" fill="black"/>
</svg>
