<svg width="104" height="109" viewBox="0 0 104 109" fill="none" xmlns="http://www.w3.org/2000/svg">
<path d="M79.1663 9.21464C76.6276 6.85678 73.6289 4.81975 70.7194 3.32533C70.6556 7.68261 66.6069 11.1904 61.5531 11.2968C56.4993 11.4032 52.3049 7.99126 52.0594 3.71828C49.1376 5.3355 46.2273 7.49697 43.8678 9.95797C45.5546 12.4893 44.8671 16.782 42.2891 19.9476C41.1507 21.294 39.8486 22.2548 38.535 22.6714C39.5213 36.2629 49.6174 35.5058 62.0574 35.2438C74.4974 34.9819 84.6164 35.3133 85.0296 21.6923C83.698 21.2536 82.3583 20.4262 81.1642 19.129C78.4552 16.0747 77.586 11.737 79.1663 9.21464Z" fill="#DE5589"/>
<path d="M61.5527 11.2983C66.6065 11.1919 70.6535 7.60633 70.719 3.3268C67.1016 1.45837 63.6576 0.441906 61.3251 0.491025C58.9926 0.540143 55.5945 1.70069 52.059 3.71975C52.3045 7.99274 56.499 11.4047 61.5527 11.2983Z" fill="#FDEEFF"/>
<path d="M43.8672 9.95958C40.591 13.2177 38.3404 17.1544 38.4239 21.1196C38.4354 21.6639 38.4468 22.2081 38.536 22.7507C39.848 22.2564 41.1517 21.3733 42.2901 20.027C44.8665 16.7836 45.5523 12.4132 43.8672 9.95958Z" fill="#FDEEFF"/>
<path d="M79.166 9.21826C77.5873 11.8184 78.4548 16.0783 81.1638 19.1326C82.3579 20.4298 83.6993 21.335 85.0292 21.6959C85.0178 21.1516 85.0857 20.6835 85.0726 20.0615C84.9907 16.174 82.5764 12.3356 79.166 9.21826Z" fill="#FDEEFF"/>
<path d="M75.9669 30.9089C76.0373 34.2521 69.7543 35.0845 62.057 35.2466C54.3598 35.4087 48.0473 34.8416 47.9769 31.4983C47.9081 28.2328 54.5307 25.0598 61.8393 24.9058C69.1494 24.8297 75.8981 27.6434 75.9669 30.9089Z" fill="#952550"/>
<path d="M74.192 50.2263L50.564 50.7239C50.564 50.7239 52.624 43.7776 53.2141 38.1249C53.8671 31.7133 54.1492 26.4039 61.8677 26.2413C69.5861 26.0788 70.0916 31.3716 71.0138 37.7501C71.8414 43.3729 74.192 50.2263 74.192 50.2263Z" fill="#E2CCAF"/>
<circle cx="59.6231" cy="30.8648" r="1.39803" fill="black"/>
<circle cx="65.2154" cy="30.8648" r="1.39803" fill="black"/>
<path d="M42.5187 108.11C47.4624 108.11 51.47 104.102 51.47 99.1583C51.47 94.2147 47.4624 90.207 42.5187 90.207C37.575 90.207 33.5674 94.2147 33.5674 99.1583C33.5674 104.102 37.575 108.11 42.5187 108.11Z" fill="#525057"/>
<path d="M25.2874 48.3592C24.3692 48.3667 23.4708 48.0916 22.7142 47.5712C21.9575 47.0508 21.3793 46.3102 21.058 45.45L14.7473 27.5474H4.47565C3.28864 27.5474 2.15024 27.0758 1.31089 26.2365C0.471541 25.3971 0 24.2587 0 23.0717C0 21.8847 0.471541 20.7463 1.31089 19.907C2.15024 19.0676 3.28864 18.5961 4.47565 18.5961H17.9026C18.8251 18.5981 19.7244 18.8852 20.4775 19.4179C21.2306 19.9507 21.8007 20.7032 22.1097 21.5724L29.4946 42.3842C29.7344 43.0587 29.8089 43.7808 29.7119 44.4901C29.6149 45.1993 29.3492 45.8749 28.937 46.4603C28.5249 47.0456 27.9784 47.5235 27.3433 47.8539C26.7083 48.1843 26.0033 48.3576 25.2874 48.3592Z" fill="#C8C8C8"/>
<path d="M90.4532 83.4938H34.7089C33.7376 83.4924 32.7932 83.175 32.0181 82.5897C31.243 82.0043 30.6794 81.1827 30.4123 80.2489L17.9028 36.4994H99.5164C100.192 36.4982 100.86 36.6501 101.469 36.9437C102.078 37.2373 102.612 37.6651 103.032 38.1948C103.452 38.7245 103.746 39.3425 103.893 40.0023C104.04 40.6621 104.036 41.3466 103.88 42.0045L94.9288 80.0475C94.6926 81.0489 94.1186 81.9382 93.3034 82.5659C92.4882 83.1936 91.4817 83.5213 90.4532 83.4938Z" fill="#44774C"/>
<path d="M82.7999 108.11C87.7436 108.11 91.7513 104.102 91.7513 99.1583C91.7513 94.2147 87.7436 90.207 82.7999 90.207C77.8563 90.207 73.8486 94.2147 73.8486 99.1583C73.8486 104.102 77.8563 108.11 82.7999 108.11Z" fill="#525057"/>
</svg>
