<svg width="36" height="37" viewBox="0 0 36 37" fill="none" xmlns="http://www.w3.org/2000/svg">
<path d="M26.5719 3.12511C25.711 2.32563 24.6943 1.63494 23.7078 1.12823C23.6861 2.60564 22.3133 3.79502 20.5998 3.8311C18.8862 3.86719 17.464 2.7103 17.3808 1.26147C16.3901 1.80981 15.4033 2.5427 14.6033 3.37715C15.1752 4.23545 14.9421 5.69094 14.068 6.76432C13.682 7.22081 13.2405 7.5466 12.7951 7.68785C13.1295 12.2963 16.5528 12.0396 20.7708 11.9508C24.9888 11.8619 28.4198 11.9743 28.5599 7.35586C28.1084 7.20713 27.6541 6.92658 27.2493 6.48674C26.3307 5.45111 26.036 3.98036 26.5719 3.12511Z" fill="#E84D88"/>
<path d="M20.5998 3.83068C22.3134 3.7946 23.6856 2.57886 23.7078 1.12781C22.4812 0.494286 21.3135 0.149637 20.5226 0.166292C19.7318 0.182946 18.5796 0.576448 17.3808 1.26105C17.464 2.70988 18.8862 3.86677 20.5998 3.83068Z" fill="#FDEEFF"/>
<path d="M14.6032 3.37695C13.4923 4.48169 12.7292 5.81647 12.7575 7.16096C12.7614 7.3455 12.7653 7.53003 12.7956 7.71402C13.2404 7.5464 13.6825 7.24698 14.0685 6.79049C14.942 5.69075 15.1746 4.2089 14.6032 3.37695Z" fill="#FDEEFF"/>
<path d="M26.5716 3.12478C26.0363 4.0064 26.3305 5.45079 27.249 6.48641C27.6539 6.92625 28.1087 7.23316 28.5596 7.35553C28.5558 7.171 28.5788 7.01227 28.5743 6.80137C28.5466 5.48324 27.728 4.18177 26.5716 3.12478Z" fill="#FDEEFF"/>
<path d="M25.4871 10.4795C25.511 11.613 23.3806 11.8953 20.7708 11.9502C18.1609 12.0052 16.0205 11.8129 15.9966 10.6793C15.9733 9.57208 18.2188 8.4962 20.6969 8.44402C23.1755 8.4182 25.4638 9.37223 25.4871 10.4795Z" fill="#A52355"/>
<path d="M24.8852 17.0296L16.8737 17.1983C16.8737 17.1983 17.5722 14.8431 17.7723 12.9264C17.9937 10.7525 18.0893 8.9522 20.7064 8.89709C23.3235 8.84198 23.4949 10.6366 23.8076 12.7993C24.0882 14.7058 24.8852 17.0296 24.8852 17.0296Z" fill="#E2CCAF"/>
<path d="M14.4167 36.6566C16.0929 36.6566 17.4518 35.2978 17.4518 33.6215C17.4518 31.9453 16.0929 30.5864 14.4167 30.5864C12.7405 30.5864 11.3816 31.9453 11.3816 33.6215C11.3816 35.2978 12.7405 36.6566 14.4167 36.6566Z" fill="#525057"/>
<path d="M8.57415 16.3974C8.26279 16.3999 7.95818 16.3067 7.70163 16.1302C7.44509 15.9537 7.24904 15.7026 7.14007 15.411L5.00032 9.34076H1.51755C1.11507 9.34076 0.729075 9.18088 0.44448 8.89628C0.159884 8.61169 0 8.22569 0 7.82321C0 7.42073 0.159884 7.03474 0.44448 6.75014C0.729075 6.46555 1.11507 6.30566 1.51755 6.30566H6.07019C6.38298 6.30636 6.68791 6.40369 6.94326 6.58433C7.19861 6.76498 7.39191 7.02012 7.49669 7.31483L10.0006 14.3714C10.082 14.6001 10.1072 14.845 10.0743 15.0855C10.0414 15.326 9.95134 15.555 9.8116 15.7535C9.67186 15.952 9.48656 16.114 9.27124 16.226C9.05592 16.3381 8.81687 16.3968 8.57415 16.3974Z" fill="#C8C8C8"/>
<path d="M30.6698 28.3102H11.7687C11.4394 28.3098 11.1191 28.2022 10.8563 28.0037C10.5935 27.8052 10.4024 27.5266 10.3119 27.21L6.07031 12.376H33.7428C33.972 12.3756 34.1983 12.4271 34.4048 12.5266C34.6112 12.6262 34.7924 12.7712 34.9348 12.9508C35.0772 13.1304 35.177 13.34 35.2268 13.5637C35.2766 13.7874 35.2751 14.0195 35.2224 14.2426L32.1873 27.1417C32.1072 27.4812 31.9126 27.7828 31.6362 27.9956C31.3598 28.2085 31.0185 28.3196 30.6698 28.3102Z" fill="#38663F"/>
<path d="M28.0746 36.6566C29.7509 36.6566 31.1097 35.2978 31.1097 33.6215C31.1097 31.9453 29.7509 30.5864 28.0746 30.5864C26.3984 30.5864 25.0396 31.9453 25.0396 33.6215C25.0396 35.2978 26.3984 36.6566 28.0746 36.6566Z" fill="#525057"/>
</svg>
